<svg width="53" height="61" viewBox="0 0 53 61" fill="none" xmlns="http://www.w3.org/2000/svg">
<path d="M32.9918 25.4952C32.9921 26.4905 32.181 27.3016 31.1857 27.3014C30.1903 27.3011 29.3789 26.4897 29.3786 25.4943C29.3784 24.499 30.1895 23.6879 31.1848 23.6882C32.187 23.6816 32.9984 24.4931 32.9918 25.4952ZM45.6452 26.9435L40.579 23.145L40.578 18.9864L36.9648 18.9856L36.9651 20.4309L31.183 16.0936L16.726 26.9366L20.3392 26.9375C20.342 38.9224 16.2949 48.6293 11.3045 48.6281L32.9974 48.6333C37.9877 48.6345 42.0417 38.9207 42.032 26.9426L45.6452 26.9435Z" fill="url(#paint0_linear)"/>
<path d="M3.87734 34.2812C5.12693 42.7009 8.46207 48.7487 12.3957 48.7429L34.0817 48.7549C30.1549 48.7539 26.8129 42.7129 25.5634 34.2932L3.87734 34.2812Z" fill="#FFE600"/>
<path d="M15.0344 12.1053C16.7049 9.47167 20.045 5.9499 24.5506 4.02932C28.9888 2.13743 34.6217 1.76511 41.1018 5.46391L42.4061 3.17892C35.1774 -0.947153 28.6774 -0.589905 23.5189 1.60902C18.4276 3.77926 14.7069 7.70956 12.8126 10.696L15.0344 12.1053Z" fill="url(#paint1_linear)"/>
<path d="M26.4875 8.58763C22.8942 9.97885 20.1377 12.7099 18.7254 14.7842L16.5506 13.3035C18.1922 10.8924 21.3409 7.75891 25.5376 6.13409C29.8083 4.48059 35.0921 4.42501 40.7601 8.1215L39.3228 10.3253C34.3976 7.11314 30.0067 7.2251 26.4875 8.58763Z" fill="url(#paint2_linear)"/>
<path d="M28.6401 13.0879C26.9631 13.8154 25.6919 15.1761 25.0601 16.1886L22.828 14.7958C23.6754 13.4376 25.3225 11.6592 27.593 10.6742C29.9362 9.65763 32.8715 9.52482 36.0501 11.4193L34.703 13.6794C32.2857 12.2386 30.2444 12.3919 28.6401 13.0879Z" fill="url(#paint3_linear)"/>
<defs>
<linearGradient id="paint0_linear" x1="17.8961" y1="16.8199" x2="17.889" y2="46.8163" gradientUnits="userSpaceOnUse">
<stop stop-color="#E83C3C"/>
<stop offset="1" stop-color="#9D3C3C"/>
</linearGradient>
<linearGradient id="paint1_linear" x1="25.9279" y1="0.0157741" x2="30.5637" y2="14.862" gradientUnits="userSpaceOnUse">
<stop stop-color="#762929"/>
<stop offset="1" stop-color="#E83C3C"/>
</linearGradient>
<linearGradient id="paint2_linear" x1="25.9279" y1="0.0157741" x2="30.5637" y2="14.862" gradientUnits="userSpaceOnUse">
<stop stop-color="#762929"/>
<stop offset="1" stop-color="#E83C3C"/>
</linearGradient>
<linearGradient id="paint3_linear" x1="25.9279" y1="0.0157741" x2="30.5637" y2="14.862" gradientUnits="userSpaceOnUse">
<stop stop-color="#762929"/>
<stop offset="1" stop-color="#E83C3C"/>
</linearGradient>
</defs>
</svg>
