<svg width="20" height="24" viewBox="0 0 20 24" fill="none" xmlns="http://www.w3.org/2000/svg">
<path d="M19.6098 1.38761V1.38743C19.6095 1.09048 19.3687 0.85 19.072 0.85H1.38761C1.09055 0.85 0.85 1.09055 0.85 1.38761V22.4713C0.85 22.7681 1.09048 23.0089 1.38761 23.0089H19.0722C19.369 23.0089 19.6098 22.7681 19.6098 22.4713V1.38761ZM18.5344 21.9334H1.92522V1.92522H18.5346L18.5344 21.9334Z" fill="#4E4E4E" stroke="#4E4E4E" stroke-width="0.3"/>
<path d="M3.78947 9.49518H16.7873C17.0845 9.49518 17.325 9.25431 17.325 8.95757V3.67081C17.325 3.37375 17.0844 3.1332 16.7873 3.1332H3.78947C3.4924 3.1332 3.25186 3.37375 3.25186 3.67081V8.95731C3.25186 9.25424 3.49227 9.49518 3.78947 9.49518ZM4.32708 4.20868H16.2497V8.41996H4.32708V4.20868Z" fill="#4E4E4E" stroke="#4E4E4E" stroke-width="0.3"/>
<path d="M6.55832 11.0814H3.92619C3.62906 11.0814 3.38857 11.3223 3.38857 11.6191V14.2514C3.38857 14.5482 3.62906 14.7891 3.92619 14.7891H6.55832C6.85545 14.7891 7.09593 14.5482 7.09593 14.2514V11.6191C7.09593 11.3223 6.85512 11.0814 6.55832 11.0814ZM6.02071 13.7138H4.4638V12.1567H6.02071V13.7138Z" fill="#4E4E4E" stroke="#4E4E4E" stroke-width="0.3"/>
<path d="M6.55832 16.182H3.92619C3.62906 16.182 3.38857 16.4229 3.38857 16.7196V19.3518C3.38857 19.6485 3.62906 19.8894 3.92619 19.8894H6.55832C6.85545 19.8894 7.09593 19.6485 7.09593 19.3518V16.7196C7.09593 16.4225 6.85506 16.182 6.55832 16.182ZM6.02071 18.8142H4.4638V17.257H6.02071V18.8142Z" fill="#4E4E4E" stroke="#4E4E4E" stroke-width="0.3"/>
<path d="M17.1887 11.6191L17.1887 11.6189C17.1883 11.3223 16.948 11.0814 16.6508 11.0814H14.019C13.7218 11.0814 13.4813 11.3223 13.4813 11.6191V14.2514C13.4813 14.5482 13.7218 14.7891 14.019 14.7891H16.6511C16.9482 14.7891 17.1887 14.5482 17.1887 14.2514V11.6191ZM16.1135 12.1567L16.1132 13.7138H14.5566V12.1567H16.1135Z" fill="#4E4E4E" stroke="#4E4E4E" stroke-width="0.3"/>
<path d="M17.1887 16.7196L17.1887 16.7195C17.1883 16.4226 16.9479 16.182 16.6508 16.182H14.019C13.7218 16.182 13.4813 16.4229 13.4813 16.7196V19.3518C13.4813 19.6485 13.7218 19.8894 14.019 19.8894H16.6511C16.9482 19.8894 17.1887 19.6485 17.1887 19.3518V16.7196ZM16.1135 17.257L16.1132 18.8142H14.5566V17.257H16.1135Z" fill="#4E4E4E" stroke="#4E4E4E" stroke-width="0.3"/>
<path d="M11.6908 10.9955H9.05949C8.76236 10.9955 8.52187 11.2364 8.52187 11.5331V14.1655C8.52187 14.4623 8.76236 14.7031 9.05949 14.7031H11.6908C11.988 14.7031 12.2285 14.4623 12.2285 14.1655V11.5331C12.2285 11.2363 11.9877 10.9955 11.6908 10.9955ZM11.1532 13.6279H9.5971V12.0707H11.1532V13.6279Z" fill="#4E4E4E" stroke="#4E4E4E" stroke-width="0.3"/>
<path d="M11.6908 16.0951H9.05949C8.76236 16.0951 8.52187 16.336 8.52187 16.6327V19.2654C8.52187 19.5621 8.76236 19.803 9.05949 19.803H11.6908C11.988 19.803 12.2285 19.5621 12.2285 19.2654V16.6327C12.2285 16.3359 11.9877 16.0951 11.6908 16.0951ZM11.1532 18.7275H9.5971V17.1701H11.1532V18.7275Z" fill="#4E4E4E" stroke="#4E4E4E" stroke-width="0.3"/>
</svg>
