<svg width="26" height="26" viewBox="0 0 26 26" fill="none" xmlns="http://www.w3.org/2000/svg">
<path d="M12.192 14.906C12.192 14.5327 12.2527 14.206 12.374 13.926C12.5047 13.6367 12.6587 13.394 12.836 13.198C13.0227 13.002 13.2653 12.7687 13.564 12.498C13.9373 12.1713 14.2127 11.8913 14.39 11.658C14.5673 11.4153 14.656 11.126 14.656 10.79C14.656 10.3327 14.4787 9.96867 14.124 9.698C13.7693 9.418 13.2793 9.278 12.654 9.278C11.562 9.278 10.7267 9.64667 10.148 10.384L9.126 9.656C9.518 9.152 10.0173 8.76467 10.624 8.494C11.24 8.22333 11.9493 8.088 12.752 8.088C13.7693 8.088 14.5767 8.312 15.174 8.76C15.7713 9.19867 16.07 9.80533 16.07 10.58C16.07 10.9627 16.0047 11.3033 15.874 11.602C15.7527 11.8913 15.6033 12.134 15.426 12.33C15.2487 12.526 15.0107 12.7593 14.712 13.03C14.3293 13.3753 14.0447 13.6787 13.858 13.94C13.6807 14.2013 13.592 14.5233 13.592 14.906H12.192ZM12.906 18.084C12.6447 18.084 12.4253 18 12.248 17.832C12.08 17.6547 11.996 17.44 11.996 17.188C11.996 16.936 12.08 16.726 12.248 16.558C12.4253 16.3807 12.6447 16.292 12.906 16.292C13.1673 16.292 13.382 16.3807 13.55 16.558C13.718 16.726 13.802 16.936 13.802 17.188C13.802 17.44 13.7133 17.6547 13.536 17.832C13.368 18 13.158 18.084 12.906 18.084Z" fill="#4E4E4E"/>
<circle cx="13" cy="13" r="12.5" stroke="#4E4E4E"/>
</svg>
