<svg width="23" height="19" viewBox="0 0 23 19" fill="none" xmlns="http://www.w3.org/2000/svg">
<path d="M22.058 13.1355C22.058 13.1116 22.058 13.1116 22.058 13.0877V4.17134C22.058 2.01994 20.2402 0.298828 18.0241 0.298828H14.7123C14.5131 0.298828 14.3388 0.466159 14.3388 0.657394C14.3388 0.848629 14.5131 1.01596 14.7123 1.01596H18.0241C19.8418 1.01596 21.311 2.42632 21.311 4.17134V11.5578C20.7382 10.8168 19.8916 10.2909 18.9454 10.0518C17.8498 9.78887 16.7293 9.9562 15.7582 10.5299C14.7871 11.0797 14.1147 11.9642 13.8657 13.016C13.8159 13.2072 13.791 13.4223 13.7661 13.6136H9.13466C9.08486 13.016 8.88565 12.4184 8.53705 11.8686C7.96434 10.9363 7.04303 10.2909 5.94741 10.0518C4.85179 9.78887 3.73127 9.9562 2.76016 10.5299C2.31195 10.7929 1.91354 11.1514 1.58984 11.5339V4.17134C1.58984 2.42632 3.05896 1.01596 4.87669 1.01596H8.21334C8.41255 1.01596 8.58685 0.848629 8.58685 0.657394C8.58685 0.466159 8.41255 0.298828 8.21334 0.298828H4.90159C2.66055 0.298828 0.867725 2.04385 0.867725 4.17134V13.0638C0.344817 15.2152 1.73924 17.3666 3.95538 17.8925C4.27908 17.9642 4.62769 18.012 4.95139 18.012C6.84382 18.012 8.56195 16.7689 9.03506 14.9283C9.08486 14.7371 9.10976 14.5219 9.13466 14.3307H13.791C13.8408 14.9283 14.04 15.5259 14.3886 16.0757C14.9614 17.008 15.8827 17.6534 16.9783 17.8925C17.302 17.9642 17.6506 18.012 17.9743 18.012C19.8667 18.012 21.5849 16.7689 22.058 14.9283C22.1825 14.3307 22.2074 13.7092 22.058 13.1355ZM8.31295 14.761C7.86474 16.5299 5.99721 17.6295 4.12968 17.1992C2.28705 16.7689 1.14163 14.9761 1.58984 13.1833C1.81394 12.3227 2.36175 11.6056 3.15856 11.1275C3.70637 10.8168 4.32888 10.6494 4.95139 10.6494C5.2253 10.6494 5.4992 10.6733 5.7731 10.745C6.66952 10.9602 7.41653 11.4861 7.91454 12.251C8.38765 12.9921 8.53705 13.9004 8.31295 14.761ZM21.311 14.761C20.8627 16.5299 18.9952 17.6295 17.1277 17.1992C16.2313 16.9841 15.4843 16.4582 14.9863 15.6932C14.6625 15.1674 14.4882 14.5936 14.4882 13.996V13.9721V13.9482C14.4882 13.6853 14.5131 13.4462 14.5878 13.1833C14.8119 12.3227 15.3598 11.6056 16.1566 11.1275C16.7044 10.8168 17.3269 10.6494 17.9494 10.6494C18.2233 10.6494 18.4972 10.6733 18.7711 10.745C19.6675 10.9602 20.4145 11.4861 20.9125 12.251C21.3857 12.9921 21.5351 13.9004 21.311 14.761Z" fill="#E83C3C"/>
</svg>
