<svg width="20" height="22" viewBox="0 0 20 22" fill="none" xmlns="http://www.w3.org/2000/svg">
<path d="M5.72121 9.15039H3.38657C3.18831 9.15039 3.02783 9.31086 3.02783 9.50912V11.8438C3.02783 12.0418 3.18831 12.2025 3.38657 12.2025H5.72121C5.91947 12.2025 6.07994 12.0418 6.07994 11.8438V9.50912C6.07994 9.3111 5.91947 9.15039 5.72121 9.15039ZM5.36247 11.485H3.7453V9.86786H5.36247V11.485Z" fill="#E83C3C"/>
<path d="M11.1665 9.15039H8.83188C8.63362 9.15039 8.47314 9.31086 8.47314 9.50912V11.8438C8.47314 12.0418 8.63362 12.2025 8.83188 12.2025H11.1665C11.3645 12.2025 11.5253 12.0418 11.5253 11.8438V9.50912C11.5253 9.3111 11.3645 9.15039 11.1665 9.15039ZM10.8078 11.485H9.19061V9.86786H10.8078V11.485Z" fill="#E83C3C"/>
<path d="M16.4439 9.15039H14.1092C13.9112 9.15039 13.7505 9.31086 13.7505 9.50912V11.8438C13.7505 12.0418 13.9112 12.2025 14.1092 12.2025H16.4439C16.6419 12.2025 16.8026 12.0418 16.8026 11.8438V9.50912C16.8026 9.3111 16.6419 9.15039 16.4439 9.15039ZM16.0851 11.485H14.468V9.86786H16.0851V11.485Z" fill="#E83C3C"/>
<path d="M5.72121 14.4688H3.38657C3.18831 14.4688 3.02783 14.6295 3.02783 14.8275V17.1621C3.02783 17.3601 3.18831 17.5209 3.38657 17.5209H5.72121C5.91947 17.5209 6.07994 17.3601 6.07994 17.1621V14.8275C6.07994 14.6295 5.91947 14.4688 5.72121 14.4688ZM5.36247 16.8034H3.7453V15.1862H5.36247V16.8034Z" fill="#E83C3C"/>
<path d="M11.1665 14.4688H8.83188C8.63362 14.4688 8.47314 14.6295 8.47314 14.8275V17.1621C8.47314 17.3601 8.63362 17.5209 8.83188 17.5209H11.1665C11.3645 17.5209 11.5253 17.3601 11.5253 17.1621V14.8275C11.5253 14.6295 11.3645 14.4688 11.1665 14.4688ZM10.8078 16.8034H9.19061V15.1862H10.8078V16.8034Z" fill="#E83C3C"/>
<path d="M16.4439 14.4688H14.1092C13.9112 14.4688 13.7505 14.6295 13.7505 14.8275V17.1621C13.7505 17.3601 13.9112 17.5209 14.1092 17.5209H16.4439C16.6419 17.5209 16.8026 17.3601 16.8026 17.1621V14.8275C16.8026 14.6295 16.6419 14.4688 16.4439 14.4688ZM16.0851 16.8034H14.468V15.1862H16.0851V16.8034Z" fill="#E83C3C"/>
<path d="M19.2849 2.20368H16.9156C16.9125 2.20368 16.9098 2.2044 16.9067 2.20464V1.72681C16.9067 0.945246 16.2711 0.30957 15.4895 0.30957C14.7079 0.30957 14.0723 0.945485 14.0723 1.72681V2.20368H11.4026V1.72681C11.4026 0.945246 10.7669 0.30957 9.98533 0.30957C9.20376 0.30957 8.56809 0.945485 8.56809 1.72681V2.20368H5.89815V1.72681C5.89815 0.945246 5.26248 0.30957 4.48092 0.30957C3.69936 0.30957 3.06368 0.945485 3.06368 1.72681V2.20392C3.06248 2.20392 3.06129 2.20368 3.06009 2.20368H0.691253C0.492993 2.20368 0.33252 2.36416 0.33252 2.56242V21.1558C0.33252 21.3538 0.492993 21.5146 0.691253 21.5146H19.2849C19.4829 21.5146 19.6436 21.3538 19.6436 21.1558V2.56242C19.6436 2.36416 19.4829 2.20368 19.2849 2.20368ZM14.7897 1.72681C14.7897 1.34081 15.1035 1.02704 15.4895 1.02704C15.8755 1.02704 16.1893 1.34081 16.1893 1.72681V3.7063C16.1893 4.09206 15.8755 4.40607 15.4895 4.40607C15.1035 4.40607 14.7897 4.0923 14.7897 3.7063V1.72681ZM9.98533 1.02704C10.3711 1.02704 10.6851 1.34081 10.6851 1.72681V3.7063C10.6851 4.09206 10.3713 4.40607 9.98533 4.40607C9.59933 4.40607 9.28555 4.0923 9.28555 3.7063V2.5959C9.28651 2.58466 9.2889 2.5739 9.2889 2.56218C9.2889 2.55046 9.28651 2.5397 9.28555 2.52846V1.72681C9.28555 1.34081 9.59933 1.02704 9.98533 1.02704ZM3.78115 1.72681C3.78115 1.34081 4.09492 1.02704 4.48092 1.02704C4.86667 1.02704 5.18069 1.34081 5.18069 1.72681V3.7063C5.18069 4.09206 4.86691 4.40607 4.48092 4.40607C4.09492 4.40607 3.78115 4.0923 3.78115 3.7063V1.72681ZM18.9262 20.7971H1.04999V2.92115H3.06009C3.06129 2.92115 3.06248 2.92091 3.06368 2.92091V3.70654C3.06368 4.4881 3.69959 5.12378 4.48092 5.12378C5.26224 5.12378 5.89815 4.4881 5.89815 3.70654V2.92139H8.56809V3.70654C8.56809 4.4881 9.204 5.12378 9.98533 5.12378C10.7666 5.12378 11.4026 4.4881 11.4026 3.70654V2.92139H14.0723V3.70654C14.0723 4.4881 14.7079 5.12378 15.4895 5.12378C16.2711 5.12378 16.9067 4.4881 16.9067 3.70654V2.92019C16.9098 2.92019 16.9125 2.92115 16.9156 2.92115H18.9262V20.7971Z" fill="#E83C3C"/>
</svg>
