<svg width="24" height="21" viewBox="0 0 24 21" fill="none" xmlns="http://www.w3.org/2000/svg">
<path d="M16.7519 15.1293V15.1293C16.5684 15.127 16.407 15.0195 16.3201 14.8584L16.3201 14.8582L12.9421 8.57429C12.9421 8.57427 12.9421 8.57424 12.9421 8.57422L12.942 8.57415L13.0741 8.50313C13.0647 8.48554 13.0566 8.46743 13.0497 8.44854L16.7519 15.1293ZM16.7519 15.1293H16.7538H16.7538H16.7538H16.7538H16.7538H16.7538H16.7539H16.7539H16.7539H16.7539H16.7539H16.7539H16.7539H16.754H16.754H16.754H16.754H16.754H16.754H16.754H16.7541H16.7541H16.7541H16.7541H16.7541H16.7541H16.7541H16.7542H16.7542H16.7542H16.7542H16.7542H16.7542H16.7542H16.7542H16.7543H16.7543H16.7543H16.7543H16.7543H16.7543H16.7543H16.7544H16.7544H16.7544H16.7544H16.7544H16.7544H16.7544H16.7544H16.7544H16.7545H16.7545H16.7545H16.7545H16.7545H16.7545H16.7545H16.7545H16.7546H16.7546H16.7546H16.7546H16.7546H16.7546H16.7546H16.7547H16.7547H16.7547H16.7547H16.7547H16.7547H16.7547H16.7547H16.7547H16.7548H16.7548H16.7548H16.7548H16.7548H16.7548H16.7548H16.7548H16.7548H16.7548H16.7549H16.7549H16.7549H16.7549H16.7549H16.7549H16.7549H16.7549H16.7549H16.7549H16.755H16.755H16.755H16.755H16.755H16.755H16.755H16.755H16.755H16.755H16.755H16.7551H16.7551H16.7551H16.7551H16.7551H16.7551H16.7551H16.7551H16.7551H16.7551H16.7551H16.7552H16.7552H16.7552H16.7552H16.7552H16.7552H16.7552H16.7552H16.7552H16.7552H16.7552H16.7552H16.7552H16.7552H16.7553H16.7553H16.7553H16.7553H16.7553H16.7553H16.7553H16.7553H16.7553H16.7553H16.7553H16.7553H16.7554H16.7554H16.7554H16.7554H16.7554H16.7554H16.7554H16.7554H16.7554H16.7554H16.7554H16.7554H16.7554H16.7555H16.7555H16.7555H16.7555H16.7555H16.7555H16.7555H16.7555H16.7555H16.7555H16.7555H16.7555H16.7555H16.7556H16.7556H16.7556H16.7556H16.7556H16.7556H16.7556H16.7556H16.7556H16.7556H16.7556H16.7556H16.7556H16.7557H16.7557H16.7557H16.7557H16.7557H16.7557H16.7557H16.7557H16.7557H16.7557H16.7557H16.7557H16.7557H16.7558H16.7558H16.7558H16.7558H16.7558H16.7558H16.7558H16.7558H16.7558H16.7558H16.7558H16.7558H16.7558H16.7559H16.7559H16.7559H16.7559H16.7559H16.7559H16.7559H16.7559H16.7559H16.7559H16.7559H16.7559H16.7559H16.756H16.756H16.756H16.756H16.756H16.756H16.756H16.756H16.756H16.756H16.756H16.756H16.756H16.7561H16.7561H16.7561H16.7561H16.7561H16.7561H16.7561H16.7561H16.7561H16.7561H16.7561H16.7561H16.7561H16.7562H16.7562H16.7562H16.7562H16.7562H16.7562H16.7562H16.7562H16.7562H16.7562H16.7562H16.7562H16.7563H16.7563H16.7563H16.7563H16.7563H16.7563H16.7563H16.7563H16.7563H16.7563H16.7563H16.7564H16.7564H16.7564H16.7564H16.7564H16.7564H16.7564H16.7564H16.7564H16.7564H16.7564H16.7565H16.7565H16.7565H16.7565H16.7565H16.7565H16.7565H16.7565H16.7565H16.7565H16.7565H16.7566H16.7566H16.7566H16.7566H16.7566H16.7566H16.7566H16.7566H16.7566H16.7567H16.7567H16.7567H16.7567H16.7567H16.7567H16.7567H16.7567H16.7568H16.7568H16.7568H16.7568H16.7568H16.7568H16.7568H16.7569H16.7569H16.7569H16.7569H16.7569H16.7569H16.7569H16.7569H16.757H16.757H16.757H16.757H16.757H16.757H16.757H16.757H16.757H16.7571H16.7571H16.7571H16.7571H16.7571H16.7571H16.7571H16.7572H16.7572H16.7572H16.7572H16.7572H16.7572H16.7572H16.7572H16.7573H16.7573H16.7573H16.7573H16.7573H16.7573H16.7573H16.7574H16.7574H16.7574H16.7574H16.7574H16.7574H16.7574H16.7575H16.7575H16.7575H16.7575H16.7575H16.7575H16.7575H16.7576H16.7576C16.9391 15.1293 17.1002 15.0255 17.1895 14.8689L17.1898 14.8683L20.7306 8.5947L20.731 8.59405C20.7461 8.56695 20.7592 8.53846 20.7697 8.50845M16.7519 15.1293L20.6317 8.44828M21.4224 5.91803C21.4241 4.57108 20.953 3.30071 20.092 2.34336C19.2299 1.3847 18.0774 0.851907 16.8471 0.85H16.8469H16.8469H16.8469H16.8469H16.8468H16.8468H16.8468H16.8468H16.8468H16.8468H16.8468H16.8468H16.8468H16.8467H16.8467H16.8467H16.8467H16.8467H16.8467H16.8467H16.8467H16.8467H16.8466H16.8466H16.8466H16.8466H16.8466H16.8466H16.8466H16.8466H16.8466H16.8466H16.8465H16.8465H16.8465H16.8465H16.8465H16.8465H16.8465H16.8465H16.8465H16.8464H16.8464H16.8464H16.8464H16.8464H16.8464H16.8464H16.8464H16.8464H16.8463H16.8463H16.8463H16.8463H16.8463H16.8463H16.8463H16.8463H16.8463H16.8462H16.8462H16.8462H16.8462H16.8462H16.8462H16.8462H16.8462H16.8462H16.8461H16.8461H16.8461H16.8461H16.8461H16.8461H16.8461H16.8461H16.8461H16.8461H16.846H16.846H16.846H16.846H16.846H16.846H16.846H16.846H16.846H16.8459H16.8459H16.8459H16.8459H16.8459H16.8459H16.8459H16.8459H16.8459H16.8458H16.8458H16.8458H16.8458H16.8458H16.8458H16.8458H16.8458H16.8458H16.8458H16.8457H16.8457H16.8457H16.8457H16.8457H16.8457H16.8457H16.8457H16.8457H16.8456H16.8456H16.8456H16.8456H16.8456H16.8456H16.8456H16.8456H16.8456H16.8456H16.8455H16.8455H16.8455H16.8455H16.8455H16.8455H16.8455H16.8455H16.8455H16.8454H16.8454H16.8454H16.8454H16.8454H16.8454H16.8454H16.8454H16.8454H16.8453H16.8453H16.8453H16.8453H16.8453H16.8453H16.8453H16.8453H16.8453H16.8453H16.8452H16.8452H16.8452H16.8452H16.8452H16.8452H16.8452H16.8452H16.8452H16.8451H16.8451H16.8451H16.8451H16.8451H16.8451H16.8451H16.8451H16.8451H16.8451H16.845H16.845H16.845H16.845H16.845H16.845H16.845H16.845H16.845H16.8449H16.8449H16.8449H16.8449H16.8449H16.8449H16.8449H16.8449H16.8449H16.8449H16.8448H16.8448H16.8448H16.8448H16.8448H16.8448H16.8448H16.8448H16.8448H16.8448H16.8447H16.8447H16.8447H16.8447H16.8447H16.8447H16.8447H16.8447H16.8447H16.8446H16.8446H16.8446H16.8446H16.8446H16.8446H16.8446H16.8446H16.8446H16.8446H16.8445H16.8445H16.8445H16.8445H16.8445H16.8445H16.8445H16.8445H16.8445H16.8444H16.8444H16.8444H16.8444H16.8444H16.8444H16.8444H16.8444H16.8444H16.8444H16.8443H16.8443H16.8443H16.8443H16.8443H16.8443H16.8443H16.8443H16.8443H16.8443H16.8442H16.8442H16.8442H16.8442H16.8442H16.8442H16.8442H16.8442H16.8442H16.8441H16.8441H16.8441H16.8441H16.8441H16.8441H16.8441H16.8441H16.8441H16.8441H16.844H16.844H16.844H16.844H16.844H16.844H16.844H16.844H16.844H16.8439H16.8439H16.8439H16.8439H16.8439H16.8439H16.8439H16.8439H16.8439H16.8439H16.8438H16.8438H16.8438H16.8438H16.8438H16.8438H16.8438H16.8438H16.8438H16.8438H16.8437H16.8437H16.8437H16.8437H16.8437H16.8437H16.8437H16.8437H16.8437H16.8436H16.8436H16.8436H16.8436H16.8436H16.8436H16.8436H16.8436H16.8436H16.8436H16.8435H16.8435H16.8435H16.8435H16.8435H16.8435H16.8435H16.8435H16.8435H16.8434H16.8434H16.8434H16.8434H16.8434H16.8434H16.8434H16.8434H16.8434H16.8434H16.8433H16.8433H16.8433H16.8433H16.8433H16.8433H16.8433H16.8433H16.8433H16.8432H16.8432H16.8432H16.8432H16.8432H16.8432H16.8432H16.8432H16.8432H16.8432H16.8431H16.8431H16.8431H16.8431H16.8431H16.8431H16.8431H16.8431H16.8431H16.843H16.843H16.843H16.843H16.843H16.843H16.843H16.843H16.843H16.843H16.8429H16.8429H16.8429H16.8429H16.8429H16.8429H16.8429H16.8429H16.8429H16.8428H16.8428H16.8428H16.8428H16.8428H16.8428H16.8428H16.8428H16.8428H16.8428H16.8427H16.8427H16.8427H16.8427H16.8427H16.8427H16.8427H16.8427H16.8427H16.8426H16.8426H16.8426H16.8426H16.8426H16.8426H16.8426H16.8426H16.8426H16.8426H16.8425H16.8425H16.8425H16.8425H16.8425H16.8425H16.8425H16.8425H16.8425H16.8424H16.8424H16.8424H16.8424H16.8424H16.8424H16.8424H16.8424H16.8424H16.8423H16.8423H16.8423H16.8423H16.8423H16.8423H16.8423H16.8423H16.8423H16.8423H16.8422H16.8422H16.8422H16.8422H16.8422H16.8422H16.8422H16.8422H16.8422H16.8421H16.8421H16.8421H16.8421H16.8421H16.8421H16.8421H16.8421H16.8421H16.842H16.842H16.842H16.842H16.842H16.842H16.842H16.842H16.842H16.8419H16.8419H16.8419H16.8419H16.8419H16.8419H16.8419H16.8419H16.8419H16.8418H16.8418H16.8418H16.8418H16.8418H16.8418H16.8418H16.8418H16.8418H16.8418H16.8417H16.8417H16.8417H16.8417H16.8417H16.8417H16.8417H16.8417H16.8417H16.8416H16.8416H16.8416H16.8416H16.8416H16.8416H16.8416H16.8416H16.8416H16.8415H16.8415H16.8415H16.8415H16.8415H16.8415H16.8415H16.8415H16.8415H16.8414C14.3029 0.85 12.2606 3.13048 12.2562 5.90448V5.90472C12.2562 6.82545 12.4827 7.72475 12.9131 8.51135L21.2724 5.91784M21.4224 5.91803L21.2724 5.91784M21.4224 5.91803C21.4224 5.91797 21.4224 5.9179 21.4224 5.91784H21.2724M21.4224 5.91803C21.4223 6.82489 21.1971 7.71835 20.7697 8.50845M21.2724 5.91784C21.2724 6.80436 21.0511 7.67749 20.6317 8.44828M20.7697 8.50845C20.7714 8.50366 20.773 8.49883 20.7746 8.49396L20.6317 8.44828M20.7697 8.50845C20.7677 8.51229 20.7656 8.51613 20.7635 8.51996L20.6317 8.44828M19.8579 8.02936L19.8578 8.02959C19.8427 8.05631 19.8304 8.08375 19.8205 8.11115L16.7681 13.5193L13.8551 8.10008C13.8447 8.07206 13.8319 8.04405 13.816 8.01695C13.4574 7.38538 13.267 6.65505 13.267 5.90538C13.2703 3.70151 14.8874 1.93705 16.8412 1.93705H16.8412H16.8412H16.8412H16.8412H16.8413H16.8413H16.8413H16.8413H16.8413H16.8413H16.8413H16.8413H16.8413H16.8413H16.8414H16.8414H16.8414H16.8414H16.8414H16.8414H16.8414H16.8414H16.8414H16.8414H16.8414H16.8415H16.8415H16.8415H16.8415H16.8415H16.8415H16.8415H16.8415H16.8415H16.8415H16.8416H16.8416H16.8416H16.8416H16.8416H16.8416H16.8416H16.8416H16.8416H16.8416H16.8417H16.8417H16.8417H16.8417H16.8417H16.8417H16.8417H16.8417H16.8417H16.8417H16.8417H16.8418H16.8418H16.8418H16.8418H16.8418H16.8418H16.8418H16.8418H16.8418H16.8418H16.8419H16.8419H16.8419H16.8419H16.8419H16.8419H16.8419H16.8419H16.8419H16.8419H16.842H16.842H16.842H16.842H16.842H16.842H16.842H16.842H16.842H16.842H16.842H16.8421H16.8421H16.8421H16.8421H16.8421H16.8421H16.8421H16.8421H16.8421H16.8421H16.8422H16.8422H16.8422H16.8422H16.8422H16.8422H16.8422H16.8422H16.8422H16.8422H16.8423H16.8423H16.8423H16.8423H16.8423H16.8423H16.8423H16.8423H16.8423H16.8423H16.8423H16.8424H16.8424H16.8424H16.8424H16.8424H16.8424H16.8424H16.8424H16.8424H16.8424H16.8425H16.8425H16.8425H16.8425H16.8425H16.8425H16.8425H16.8425H16.8425H16.8425H16.8426H16.8426H16.8426H16.8426H16.8426H16.8426H16.8426H16.8426H16.8426H16.8426H16.8426H16.8427H16.8427H16.8427H16.8427H16.8427H16.8427H16.8427H16.8427H16.8427H16.8427H16.8428H16.8428H16.8428H16.8428H16.8428H16.8428H16.8428H16.8428H16.8428H16.8428H16.8428H16.8429H16.8429H16.8429H16.8429H16.8429H16.8429H16.8429H16.8429H16.8429H16.8429H16.843H16.843H16.843H16.843H16.843H16.843H16.843H16.843H16.843H16.843H16.843H16.8431H16.8431H16.8431H16.8431H16.8431H16.8431H16.8431H16.8431H16.8431H16.8431H16.8432H16.8432H16.8432H16.8432H16.8432H16.8432H16.8432H16.8432H16.8432H16.8432H16.8432H16.8433H16.8433H16.8433H16.8433H16.8433H16.8433H16.8433H16.8433H16.8433H16.8433H16.8434H16.8434H16.8434H16.8434H16.8434H16.8434H16.8434H16.8434H16.8434H16.8434H16.8434H16.8435H16.8435H16.8435H16.8435H16.8435H16.8435H16.8435H16.8435H16.8435H16.8435H16.8436H16.8436H16.8436H16.8436H16.8436H16.8436H16.8436H16.8436H16.8436H16.8436H16.8436H16.8437H16.8437H16.8437H16.8437H16.8437H16.8437H16.8437H16.8437H16.8437H16.8437H16.8437H16.8438H16.8438H16.8438H16.8438H16.8438H16.8438H16.8438H16.8438H16.8438H16.8438H16.8439H16.8439H16.8439H16.8439H16.8439H16.8439H16.8439H16.8439H16.8439H16.8439H16.8439H16.844H16.844H16.844H16.844H16.844H16.844H16.844H16.844H16.844H16.844H16.844H16.8441H16.8441H16.8441H16.8441H16.8441H16.8441H16.8441H16.8441H16.8441H16.8441H16.8441H16.8442H16.8442H16.8442H16.8442H16.8442H16.8442H16.8442H16.8442H16.8442H16.8442H16.8442H16.8443H16.8443H16.8443H16.8443H16.8443H16.8443H16.8443H16.8443H16.8443H16.8443H16.8443H16.8444H16.8444H16.8444H16.8444H16.8444H16.8444H16.8444H16.8444H16.8444H16.8444H16.8444H16.8445H16.8445H16.8445H16.8445H16.8445H16.8445H16.8445H16.8445H16.8445H16.8445H16.8445H16.8446H16.8446H16.8446H16.8446H16.8446H16.8446H16.8446H16.8446H16.8446H16.8446H16.8446H16.8447H16.8447H16.8447H16.8447H16.8447H16.8447H16.8447H16.8447H16.8447H16.8447H16.8447H16.8448H16.8448H16.8448H16.8448H16.8448H16.8448H16.8448H16.8448H16.8448H16.8448H16.8448H16.8449H16.8449H16.8449H16.8449H16.8449H16.8449H16.8449H16.8449H16.8449H16.8449H16.8449H16.845H16.845H16.845H16.845H16.845H16.845H16.845H16.845H16.845H16.845H16.845H16.845H16.8451H16.8451H16.8451H16.8451H16.8451H16.8451H16.8451H16.8451H16.8451H16.8451H16.8451H16.8452H16.8452H16.8452H16.8452H16.8452H16.8452H16.8452H16.8452H16.8452H16.8452H16.8452H16.8453H16.8453H16.8453H16.8453H16.8453H16.8453H16.8453H16.8453H16.8453H16.8453H16.8453H16.8453H16.8454H16.8454H16.8454H16.8454H16.8454H16.8454H16.8454H16.8454H16.8454H16.8454H16.8454H16.8455H16.8455H16.8455H16.8455H16.8455H16.8455H16.8455H16.8455H16.8455H16.8455H16.8455H16.8455H16.8456H16.8456H16.8456H16.8456H16.8456H16.8456H16.8456H16.8456H16.8456H16.8456H16.8456H16.8456H16.8457H16.8457H16.8457H16.8457H16.8457H16.8457H16.8457H16.8457H16.8457H16.8457H16.8457H16.8457H16.8458H16.8458H16.8458H16.8458H16.8458H16.8458H16.8458H16.8458H16.8458C17.7959 1.93885 18.6906 2.34928 19.3652 3.09929C20.0401 3.8499 20.413 4.84963 20.4114 5.91683V5.91705V5.91706V5.91707V5.91708V5.91709V5.91709V5.9171V5.91711V5.91712V5.91713V5.91713V5.91714V5.91715V5.91716V5.91717V5.91717V5.91718V5.91719V5.9172V5.91721V5.91721V5.91722V5.91723V5.91724V5.91724V5.91725V5.91726V5.91727V5.91728V5.91728V5.91729V5.9173V5.91731V5.91732V5.91732V5.91733V5.91734V5.91735V5.91735V5.91736V5.91737V5.91738V5.91739V5.91739V5.9174V5.91741V5.91742V5.91742V5.91743V5.91744V5.91745V5.91746V5.91746V5.91747V5.91748V5.91749V5.9175V5.91751V5.91751V5.91752V5.91753V5.91754V5.91755V5.91755V5.91756V5.91757V5.91758C20.4114 6.65848 20.2199 7.38885 19.8579 8.02936Z" fill="#4E4E4E" stroke="#4E4E4E" stroke-width="0.3"/>
<path d="M15.4043 4.09786L15.4042 4.09789C15.0231 4.51896 14.8149 5.0768 14.8144 5.66625L14.9644 5.66638L14.8144 5.66612C14.8134 6.25739 15.0205 6.81659 15.4014 7.23932C15.7822 7.66202 16.2931 7.89856 16.8387 7.89856H16.8387H16.8387H16.8387H16.8387H16.8387H16.8387H16.8387H16.8387H16.8387H16.8387H16.8387H16.8388H16.8388H16.8388H16.8388H16.8388H16.8388H16.8388H16.8388H16.8388H16.8388H16.8388H16.8388H16.8389H16.8389H16.8389H16.8389H16.8389H16.8389H16.8389H16.8389H16.8389H16.8389H16.8389H16.8389H16.839H16.839H16.839H16.839H16.839H16.839H16.839H16.839H16.839H16.839H16.839H16.839H16.839H16.8391H16.8391H16.8391H16.8391H16.8391H16.8391H16.8391H16.8391H16.8391H16.8391H16.8391H16.8391H16.8392H16.8392H16.8392H16.8392H16.8392H16.8392H16.8392H16.8392H16.8392H16.8392H16.8392H16.8392H16.8392H16.8393H16.8393H16.8393H16.8393H16.8393H16.8393H16.8393H16.8393H16.8393H16.8393H16.8393H16.8393H16.8394H16.8394H16.8394H16.8394H16.8394H16.8394H16.8394H16.8394H16.8394H16.8394H16.8394H16.8394H16.8394H16.8395H16.8395H16.8395H16.8395H16.8395H16.8395H16.8395H16.8395H16.8395H16.8395H16.8395H16.8395H16.8395H16.8396H16.8396H16.8396H16.8396H16.8396H16.8396H16.8396H16.8396H16.8396H16.8396H16.8396H16.8396H16.8396H16.8397H16.8397H16.8397H16.8397H16.8397H16.8397H16.8397H16.8397H16.8397H16.8397H16.8397H16.8397H16.8397H16.8398H16.8398H16.8398H16.8398H16.8398H16.8398H16.8398H16.8398H16.8398H16.8398H16.8398H16.8398H16.8398H16.8399H16.8399H16.8399H16.8399H16.8399H16.8399H16.8399H16.8399H16.8399H16.8399H16.8399H16.8399H16.8399H16.84H16.84H16.84H16.84H16.84H16.84H16.84H16.84H16.84H16.84H16.84H16.84H16.84H16.8401H16.8401H16.8401H16.8401H16.8401H16.8401H16.8401H16.8401H16.8401H16.8401H16.8401H16.8401H16.8401H16.8402H16.8402H16.8402H16.8402H16.8402H16.8402H16.8402H16.8402H16.8402H16.8402H16.8402H16.8402H16.8402H16.8402H16.8403H16.8403H16.8403H16.8403H16.8403H16.8403H16.8403H16.8403H16.8403H16.8403H16.8403H16.8403H16.8403H16.8404H16.8404H16.8404H16.8404H16.8404H16.8404H16.8404H16.8404H16.8404H16.8404H16.8404H16.8404H16.8404H16.8404H16.8405H16.8405H16.8405H16.8405H16.8405H16.8405H16.8405H16.8405H16.8405H16.8405H16.8405H16.8405H16.8405H16.8406H16.8406H16.8406H16.8406H16.8406H16.8406H16.8406H16.8406H16.8406H16.8406H16.8406H16.8406H16.8406H16.8406H16.8407H16.8407H16.8407H16.8407H16.8407H16.8407H16.8407H16.8407H16.8407H16.8407H16.8407H16.8407H16.8407H16.8407H16.8408H16.8408H16.8408H16.8408H16.8408H16.8408H16.8408H16.8408H16.8408H16.8408H16.8408H16.8408H16.8408H16.8408H16.8409H16.8409H16.8409H16.8409H16.8409H16.8409H16.8409H16.8409H16.8409H16.8409H16.8409H16.8409H16.8409H16.8409H16.841H16.841H16.841H16.841H16.841H16.841H16.841H16.841H16.841H16.841H16.841H16.841H16.841H16.841H16.8411H16.8411H16.8411H16.8411H16.8411H16.8411H16.8411H16.8411H16.8411H16.8411H16.8411H16.8411H16.8411H16.8411H16.8412H16.8412H16.8412H16.8412H16.8412H16.8412H16.8412H16.8412H16.8412H16.8412H16.8412H16.8412H16.8412H16.8412H16.8413H16.8413H16.8413H16.8413H16.8413H16.8413H16.8413H16.8413H16.8413H16.8413H16.8413H16.8413H16.8413H16.8413H16.8414H16.8414H16.8414H16.8414H16.8414H16.8414H16.8414H16.8414H16.8414H16.8414H16.8414H16.8414H16.8414H16.8414H16.8415H16.8415H16.8415H16.8415H16.8415H16.8415H16.8415H16.8415H16.8415H16.8415H16.8415H16.8415H16.8415H16.8415H16.8416H16.8416H16.8416H16.8416H16.8416H16.8416H16.8416H16.8416H16.8416H16.8416H16.8416H16.8416H16.8416H16.8416H16.8417H16.8417H16.8417H16.8417H16.8417H16.8417H16.8417H16.8417H16.8417H16.8417H16.8417H16.8417H16.8417H16.8417H16.8417H16.8418H16.8418H16.8418H16.8418H16.8418H16.8418H16.8418H16.8418H16.8418H16.8418H16.8418H16.8418H16.8418H16.8418H16.8419H16.8419H16.8419H16.8419H16.8419H16.8419H16.8419H16.8419H16.8419H16.8419H16.8419H16.8419H16.8419H16.8419H16.842H16.842H16.842H16.842H16.842H16.842H16.842H16.842H16.842H16.842H16.842H16.842H16.842H16.842H16.842H16.8421H16.8421H16.8421H16.8421H16.8421H16.8421H16.8421H16.8421H16.8421H16.8421H16.8421H16.8421H16.8421H16.8421H16.8422H16.8422H16.8422H16.8422H16.8422H16.8422H16.8422H16.8422H16.8422H16.8422H16.8422H16.8422H16.8422H16.8422H16.8422H16.8423H16.8423H16.8423H16.8423H16.8423H16.8423H16.8423H16.8423H16.8423H16.8423H16.8423H16.8423H16.8423H16.8423H16.8424H16.8424H16.8424H16.8424H16.8424H16.8424H16.8424H16.8424H16.8424H16.8424H16.8424H16.8424H16.8424H16.8424C17.3869 7.89856 17.8962 7.66346 18.2771 7.24303L18.2771 7.24299C18.6583 6.82189 18.8665 6.26378 18.867 5.67359V5.67359C18.868 4.45906 17.9742 3.44323 16.8431 3.4418H16.8429H16.8429H16.8429H16.8429H16.8429H16.8429H16.8429H16.8429H16.8429H16.8429H16.8429H16.8429H16.8429H16.8429H16.8429H16.8429H16.8429H16.8428H16.8428H16.8428H16.8428H16.8428H16.8428H16.8428H16.8428H16.8428H16.8428H16.8428H16.8428H16.8428H16.8428H16.8428H16.8428H16.8428H16.8428H16.8428H16.8428H16.8428H16.8428H16.8428H16.8428H16.8427H16.8427H16.8427H16.8427H16.8427H16.8427H16.8427H16.8427H16.8427H16.8427H16.8427H16.8427H16.8427H16.8427H16.8427H16.8427H16.8427H16.8427H16.8427H16.8427H16.8427H16.8427H16.8427H16.8427H16.8426H16.8426H16.8426H16.8426H16.8426H16.8426H16.8426H16.8426H16.8426H16.8426H16.8426H16.8426H16.8426H16.8426H16.8426H16.8426H16.8426H16.8426H16.8426H16.8426H16.8426H16.8426H16.8426H16.8426H16.8426H16.8425H16.8425H16.8425H16.8425H16.8425H16.8425H16.8425H16.8425H16.8425H16.8425H16.8425H16.8425H16.8425H16.8425H16.8425H16.8425H16.8425H16.8425H16.8425H16.8425H16.8425H16.8425H16.8425H16.8425H16.8424H16.8424H16.8424H16.8424H16.8424H16.8424H16.8424H16.8424H16.8424H16.8424H16.8424H16.8424H16.8424H16.8424H16.8424H16.8424H16.8424H16.8424H16.8424H16.8424H16.8424H16.8424H16.8424H16.8424H16.8423H16.8423H16.8423H16.8423H16.8423H16.8423H16.8423H16.8423H16.8423H16.8423H16.8423H16.8423H16.8423H16.8423H16.8423H16.8423H16.8423H16.8423H16.8423H16.8423H16.8423H16.8423H16.8423H16.8423H16.8423H16.8422H16.8422H16.8422H16.8422H16.8422H16.8422H16.8422H16.8422H16.8422H16.8422H16.8422H16.8422H16.8422H16.8422H16.8422H16.8422H16.8422H16.8422H16.8422H16.8422H16.8422H16.8422H16.8422H16.8422H16.8422H16.8421H16.8421H16.8421H16.8421H16.8421H16.8421H16.8421H16.8421H16.8421H16.8421H16.8421H16.8421H16.8421H16.8421H16.8421H16.8421H16.8421H16.8421H16.8421H16.8421H16.8421H16.8421H16.8421H16.8421H16.8421H16.842H16.842H16.842H16.842H16.842H16.842H16.842H16.842H16.842H16.842H16.842H16.842H16.842H16.842H16.842H16.842H16.842H16.842H16.842H16.842H16.842H16.842H16.842H16.842H16.842H16.842H16.8419H16.8419H16.8419H16.8419H16.8419H16.8419H16.8419H16.8419H16.8419H16.8419H16.8419H16.8419H16.8419H16.8419H16.8419H16.8419H16.8419H16.8419H16.8419H16.8419H16.8419H16.8419H16.8419H16.8419H16.8419H16.8419H16.8418H16.8418H16.8418H16.8418H16.8418H16.8418H16.8418H16.8418H16.8418H16.8418H16.8418H16.8418H16.8418H16.8418H16.8418H16.8418H16.8418H16.8418H16.8418H16.8418H16.8418H16.8418H16.8418H16.8418H16.8418H16.8418H16.8418H16.8417H16.8417H16.8417H16.8417H16.8417H16.8417H16.8417H16.8417H16.8417H16.8417H16.8417H16.8417H16.8417H16.8417H16.8417H16.8417H16.8417H16.8417H16.8417H16.8417H16.8417H16.8417H16.8417H16.8417H16.8417H16.8417H16.8417H16.8416H16.8416H16.8416H16.8416H16.8416H16.8416H16.8416H16.8416H16.8416H16.8416H16.8416H16.8416H16.8416H16.8416H16.8416H16.8416H16.8416H16.8416H16.8416H16.8416H16.8416H16.8416H16.8416H16.8416H16.8416H16.8416H16.8416H16.8416H16.8415H16.8415H16.8415H16.8415H16.8415H16.8415H16.8415H16.8415H16.8415H16.8415H16.8415H16.8415H16.8415H16.8415H16.8415H16.8415H16.8415H16.8415H16.8415H16.8415H16.8415H16.8415H16.8415H16.8415H16.8415H16.8415H16.8415H16.8415H16.8415H16.8414H16.8414H16.8414H16.8414H16.8414H16.8414H16.8414H16.8414H16.8414H16.8414H16.8414H16.8414H16.8414H16.8414H16.8414H16.8414H16.8414H16.8414H16.8414H16.8414H16.8414H16.8414H16.8414H16.8414H16.8414H16.8414H16.8414H16.8414H16.8414H16.8413H16.8413H16.8413H16.8413H16.8413H16.8413H16.8413H16.8413H16.8413H16.8413H16.8413H16.8413H16.8413H16.8413H16.8413H16.8413H16.8413H16.8413H16.8413H16.8413H16.8413H16.8413H16.8413H16.8413H16.8413H16.8413H16.8413H16.8413H16.8413H16.8413H16.8413H16.8412H16.8412H16.8412H16.8412H16.8412H16.8412H16.8412H16.8412H16.8412H16.8412H16.8412H16.8412H16.8412H16.8412H16.8412H16.8412H16.8412H16.8412H16.8412H16.8412H16.8412H16.8412H16.8412H16.8412H16.8412H16.8412H16.8412H16.8412H16.8412H16.8412H16.8412H16.8412H16.8412H16.8411H16.8411H16.8411H16.8411H16.8411H16.8411H16.8411H16.8411H16.8411H16.8411H16.8411H16.8411H16.8411H16.8411H16.8411H16.8411H16.8411H16.8411H16.8411H16.8411H16.8411H16.8411H16.8411H16.8411H16.8411H16.8411H16.8411H16.8411H16.8411H16.8411H16.8411H16.8411H16.8411H16.8411H16.841H16.841H16.841H16.841H16.841H16.841H16.841H16.841H16.841H16.841C16.2955 3.4418 15.7854 3.67712 15.4043 4.09786ZM16.1284 4.85693L16.1285 4.85687C16.3168 4.64872 16.5616 4.53517 16.8199 4.52935L16.8418 4.52938C17.3873 4.53004 17.8566 5.02839 17.8562 5.67283C17.856 5.98229 17.7469 6.26998 17.5529 6.48422C17.3597 6.69752 17.1077 6.81125 16.8417 6.81125H16.8417H16.8417H16.8417H16.8417H16.8417H16.8417H16.8417H16.8417H16.8417H16.8417H16.8417H16.8417H16.8417H16.8417H16.8417H16.8416H16.8416H16.8416H16.8416H16.8416H16.8416H16.8416H16.8416H16.8416H16.8416H16.8416H16.8416H16.8416H16.8416H16.8416H16.8416H16.8416H16.8416H16.8415H16.8415H16.8415H16.8415H16.8415H16.8415H16.8415H16.8415H16.8415H16.8415H16.8415H16.8415H16.8415H16.8415H16.8415H16.8415H16.8415H16.8415H16.8415H16.8414H16.8414H16.8414H16.8414H16.8414H16.8414H16.8414H16.8414H16.8414H16.8414H16.8414H16.8414H16.8414H16.8414H16.8414H16.8414H16.8414H16.8414H16.8414H16.8413H16.8413H16.8413H16.8413H16.8413H16.8413H16.8413H16.8413H16.8413H16.8413H16.8413H16.8413H16.8413H16.8413H16.8413H16.8413H16.8413H16.8413H16.8413H16.8412H16.8412H16.8412H16.8412H16.8412H16.8412H16.8412H16.8412H16.8412H16.8412H16.8412H16.8412H16.8412H16.8412H16.8412H16.8412H16.8412H16.8412H16.8412H16.8412H16.8411H16.8411H16.8411H16.8411H16.8411H16.8411H16.8411H16.8411H16.8411H16.8411H16.8411H16.8411H16.8411H16.8411H16.8411H16.8411H16.8411H16.8411H16.8411H16.8411H16.841H16.841H16.841H16.841H16.841H16.841H16.841H16.841H16.841H16.841H16.841H16.841H16.841H16.841H16.841H16.841H16.841H16.841H16.841H16.841H16.841H16.8409H16.8409H16.8409H16.8409H16.8409H16.8409H16.8409H16.8409H16.8409H16.8409H16.8409H16.8409H16.8409H16.8409H16.8409H16.8409H16.8409H16.8409H16.8409H16.8409H16.8409H16.8408H16.8408H16.8408H16.8408H16.8408H16.8408H16.8408H16.8408H16.8408H16.8408H16.8408H16.8408H16.8408H16.8408H16.8408H16.8408H16.8408H16.8408H16.8408H16.8408H16.8408H16.8407H16.8407H16.8407H16.8407H16.8407H16.8407H16.8407H16.8407H16.8407H16.8407H16.8407H16.8407H16.8407H16.8407H16.8407H16.8407H16.8407H16.8407H16.8407H16.8407H16.8407H16.8406H16.8406H16.8406H16.8406H16.8406H16.8406H16.8406H16.8406H16.8406H16.8406H16.8406H16.8406H16.8406H16.8406H16.8406H16.8406H16.8406H16.8406H16.8406H16.8406H16.8406H16.8406H16.8405H16.8405H16.8405H16.8405H16.8405H16.8405H16.8405H16.8405H16.8405H16.8405H16.8405H16.8405H16.8405H16.8405H16.8405H16.8405H16.8405H16.8405H16.8405H16.8405H16.8405H16.8405H16.8404H16.8404H16.8404H16.8404H16.8404H16.8404H16.8404H16.8404H16.8404H16.8404H16.8404H16.8404H16.8404H16.8404H16.8404H16.8404H16.8404H16.8404H16.8404H16.8404H16.8404H16.8404H16.8403H16.8403H16.8403H16.8403H16.8403H16.8403H16.8403H16.8403H16.8403H16.8403H16.8403H16.8403H16.8403H16.8403H16.8403H16.8403H16.8403H16.8403H16.8403H16.8403H16.8403H16.8403H16.8403H16.8402H16.8402H16.8402H16.8402H16.8402H16.8402H16.8402H16.8402H16.8402H16.8402H16.8402H16.8402H16.8402H16.8402H16.8402H16.8402H16.8402H16.8402H16.8402H16.8402H16.8402H16.8402H16.8402H16.8401H16.8401H16.8401H16.8401H16.8401H16.8401H16.8401H16.8401H16.8401H16.8401H16.8401H16.8401H16.8401H16.8401H16.8401H16.8401H16.8401H16.8401H16.8401H16.8401H16.8401H16.8401H16.8401H16.84H16.84H16.84H16.84H16.84H16.84H16.84H16.84H16.84H16.84H16.84H16.84H16.84H16.84H16.84H16.84H16.84H16.84H16.84H16.84H16.84H16.84H16.84H16.8399H16.8399H16.8399H16.8399H16.8399H16.8399H16.8399H16.8399H16.8399H16.8399H16.8399H16.8399H16.8399H16.8399H16.8399H16.8399H16.8399H16.8399H16.8399H16.8399H16.8399H16.8399H16.8399H16.8399H16.8398H16.8398H16.8398H16.8398H16.8398H16.8398H16.8398H16.8398H16.8398H16.8398H16.8398H16.8398H16.8398H16.8398H16.8398H16.8398H16.8398H16.8398H16.8398H16.8398H16.8398H16.8398H16.8398H16.8398H16.8397H16.8397H16.8397H16.8397H16.8397H16.8397H16.8397H16.8397H16.8397H16.8397H16.8397H16.8397H16.8397H16.8397H16.8397H16.8397H16.8397H16.8397H16.8397H16.8397H16.8397H16.8397H16.8397H16.8396H16.8396H16.8396H16.8396H16.8396H16.8396H16.8396H16.8396H16.8396H16.8396H16.8396H16.8396H16.8396H16.8396H16.8396H16.8396H16.8396H16.8396H16.8396H16.8396H16.8396H16.8396H16.8396H16.8396H16.8395H16.8395H16.8395H16.8395H16.8395H16.8395H16.8395H16.8395H16.8395H16.8395H16.8395H16.8395H16.8395H16.8395H16.8395H16.8395H16.8395H16.8395H16.8395H16.8395H16.8395H16.8395H16.8395H16.8395H16.8394H16.8394H16.8394H16.8394H16.8394H16.8394H16.8394H16.8394H16.8394H16.8394H16.8394H16.8394H16.8394H16.8394H16.8394H16.8394H16.8394H16.8394H16.8394H16.8394H16.8394C16.5736 6.81125 16.3207 6.69689 16.1275 6.48242C15.9334 6.26689 15.8247 5.97839 15.8251 5.66789L15.8251 5.66779C15.8253 5.35865 15.9344 5.0712 16.1284 4.85693Z" fill="#4E4E4E" stroke="#4E4E4E" stroke-width="0.3"/>
<path d="M0.92979 20.4639L0.929832 20.4639C1.02023 20.6156 1.17829 20.714 1.3553 20.714H22.6447C22.8217 20.714 22.9798 20.6155 23.0702 20.4636C23.1598 20.3131 23.1745 20.1253 23.1114 19.9613L23.1114 19.9612L19.4412 10.4507C19.4412 10.4507 19.4412 10.4507 19.4412 10.4507C19.3366 10.1795 19.0389 10.0346 18.7705 10.1618C18.5112 10.2847 18.4053 10.6032 18.5076 10.8681C18.5076 10.8682 18.5076 10.8682 18.5077 10.8682L21.8875 19.6264H2.11225L5.56526 10.6776H14.3654C14.6588 10.6776 14.8708 10.4195 14.8708 10.1339C14.8708 9.84829 14.6588 9.59023 14.3654 9.59023H5.2278C5.01639 9.59023 4.83665 9.72968 4.76115 9.9253L4.76114 9.92532L0.888642 19.9615L0.888614 19.9616C0.825457 20.1255 0.840194 20.3134 0.92979 20.4639Z" fill="#4E4E4E" stroke="#4E4E4E" stroke-width="0.3"/>
<path d="M12.7419 17.7501L12.7419 17.75C11.5847 17.626 10.4638 17.4823 9.57972 17.2161C8.70414 16.9525 8.00716 16.5531 7.77808 15.8785C7.49175 15.0355 7.91163 14.3901 8.21574 13.9227L8.22416 13.9098L8.22418 13.9098C8.39549 13.6465 8.49469 13.4782 8.53592 13.3403C8.57225 13.2188 8.5634 13.1212 8.49406 12.9902L8.49406 12.9902C8.45934 12.9247 8.37519 12.8487 8.23629 12.7629C8.10152 12.6797 7.93794 12.6005 7.76794 12.5184L7.76794 12.5184L7.75993 12.5146C7.43505 12.3577 7.02676 12.1605 6.70095 11.8458C6.36608 11.5224 6.12014 11.0773 6.11758 10.4362L12.7419 17.7501ZM12.7419 17.7501C13.1656 17.7952 13.5215 17.8337 13.7418 17.8751C14.9242 18.0973 15.5588 18.672 15.9006 19.1843C16.2455 19.7013 16.2981 20.1642 16.2976 20.1603L16.4467 20.1439M12.7419 17.7501L16.8591 20.6394M6.62131 9.89004V9.89004H6.62131H6.62131H6.62132H6.62132H6.62132H6.62132H6.62133H6.62133H6.62133H6.62134H6.62134H6.62134H6.62134H6.62135H6.62135H6.62135H6.62136H6.62136H6.62136H6.62136H6.62137H6.62137H6.62137H6.62138H6.62138H6.62138H6.62138H6.62139H6.62139H6.62139H6.6214H6.6214H6.6214H6.62141H6.62141H6.62141H6.62141H6.62142H6.62142H6.62142H6.62143H6.62143H6.62143H6.62143H6.62144H6.62144H6.62144H6.62145H6.62145H6.62145H6.62146H6.62146H6.62146H6.62147H6.62147H6.62147H6.62147H6.62148H6.62148H6.62148H6.62149H6.62149H6.62149H6.6215H6.6215H6.6215H6.62151H6.62151H6.62151H6.62151H6.62152H6.62152H6.62152H6.62153H6.62153H6.62153H6.62154H6.62154H6.62154H6.62155H6.62155H6.62155H6.62156H6.62156H6.62156H6.62156H6.62157H6.62157H6.62157H6.62158H6.62158H6.62158H6.62159H6.62159H6.62159H6.6216H6.6216H6.6216H6.62161H6.62161H6.62161H6.62162H6.62162H6.62162H6.62163H6.62163H6.62163H6.62163H6.62164H6.62164H6.62164H6.62165H6.62165H6.62165H6.62166H6.62166H6.62166H6.62167H6.62167H6.62167H6.62168H6.62168H6.62168H6.62169H6.62169H6.62169H6.6217H6.6217H6.6217H6.62171H6.62171H6.62171H6.62172H6.62172H6.62172H6.62173H6.62173H6.62173H6.62174H6.62174H6.62174H6.62175H6.62175H6.62175H6.62176H6.62176H6.62176H6.62177H6.62177H6.62177H6.62178H6.62178H6.62178H6.62179H6.62179H6.62179H6.6218H6.6218H6.6218H6.62181H6.62181H6.62181H6.62182H6.62182H6.62182H6.62183H6.62183H6.62183H6.62184H6.62184H6.62184H6.62185H6.62185H6.62185H6.62186H6.62186H6.62186H6.62187H6.62187H6.62187H6.62188H6.62188H6.62189H6.62189H6.62189H6.6219H6.6219H6.6219H6.62191H6.62191H6.62191H6.62192H6.62192H6.62192H6.62193H6.62193H6.62193H6.62194H6.62194H6.62194H6.62195H6.62195H6.62195H6.62196H6.62196H6.62196H6.62197H6.62197H6.62197H6.62198H6.62198H6.62198H6.62199H6.62199H6.622H6.622H6.622H6.62201H6.62201H6.62201H6.62202H6.62202H6.62202H6.62203H6.62203H6.62203H6.62204H6.62204H6.62204H6.62205H6.62205H6.62205H6.62206H6.62206H6.62206H6.62207H6.62207H6.62207H6.62208H6.62208H6.62209H6.62209H6.62209H6.6221H6.6221H6.6221H6.62211H6.62211H6.62211H6.62212H6.62212H6.62212H6.62213H6.62213H6.62213H6.62214H6.62214H6.62214H6.62215H6.62215H6.62215H6.62216H6.62216H6.62216H6.62217H6.62217H6.62218H6.62218H6.62218H6.62219H6.62219H6.62219H6.6222H6.6222H6.6222H6.62221H6.62221H6.62221H6.62222H6.62222H6.62222H6.62223H6.62223H6.62223H6.62224H6.62224H6.62224H6.62225H6.62225H6.62225H6.62226H6.62226H6.62227H6.62227H6.62227H6.62228H6.62228H6.62228H6.62229H6.62229H6.62229H6.6223H6.6223H6.6223H6.62231H6.62231H6.62231H6.62232H6.62232H6.62232H6.62233H6.62233H6.62233H6.62234H6.62234H6.62234H6.62235H6.62235H6.62235H6.62236H6.62236H6.62237H6.62237H6.62237H6.62238H6.62238H6.62238H6.62239H6.62239H6.62239H6.6224H6.6224H6.6224H6.62241H6.62241H6.62241H6.62242H6.62242H6.62242H6.62243H6.62243H6.62243H6.62244H6.62244H6.62244H6.62245H6.62245H6.62245H6.62246H6.62246H6.62246H6.62247H6.62247H6.62247H6.62248H6.62248H6.62248H6.62249H6.62249H6.62249H6.6225H6.6225H6.6225H6.62251H6.62251H6.62251H6.62252H6.62252H6.62252H6.62253H6.62253H6.62253H6.62254H6.62254H6.62254H6.62255H6.62255H6.62255H6.62256H6.62256H6.62256H6.62257H6.62257H6.62257H6.62258H6.62258H6.62258H6.62259H6.62259H6.62259H6.6226H6.6226H6.6226H6.62261H6.62261H6.62261H6.62262H6.62262H6.62262H6.62263H6.62263H6.62263H6.62264H6.62264H6.62264H6.62265H6.62265H6.62265H6.62266H6.62266H6.62266H6.62267H6.62267H6.62267H6.62267H6.62268H6.62268H6.62268H6.62269H6.62269H6.62269H6.6227H6.6227H6.6227H6.62271H6.62271H6.62271H6.62272H6.62272H6.62272H6.62273H6.62273H6.62273H6.62273H6.62274H6.62274H6.62274H6.62275H6.62275H6.62275H6.62276H6.62276H6.62276H6.62277H6.62277H6.62277H6.62278H6.62278H6.62278H6.62278H6.62279H6.62279H6.62279H6.6228H6.6228H6.6228H6.62281H6.62281H6.62281H6.62282H6.62282H6.62282H6.62282H6.62283H6.62283H6.62283H6.62284H6.62284H6.62284H6.62285H6.62285H6.62285H6.62285H6.62286H6.62286H6.62286H6.62287H6.62287H6.62287H6.62287H6.62288H6.62288H6.62288H6.62289H6.62289H6.62289H6.6229H6.6229H6.6229H6.6229H6.62291H6.62291H6.62291H6.62292H6.62292H6.62292H6.62292H6.62293H6.62293H6.62293H6.62294H6.62294H6.62294H6.62294H6.62295H6.62295H6.62295H6.62296H6.62296H6.62296H6.62296H6.62297C6.91525 9.89004 7.1271 10.1466 7.12835 10.4312L7.12835 10.4312C7.12948 10.7072 7.2201 10.8903 7.38682 11.0479C7.56339 11.2148 7.82622 11.3544 8.18271 11.5266L8.18271 11.5266C8.18959 11.5299 8.1965 11.5332 8.20342 11.5366C8.62885 11.742 9.12325 11.9806 9.37259 12.4518C9.83688 13.3288 9.36632 14.0518 9.06078 14.5213L9.05253 14.534L9.05252 14.534C8.75222 14.9953 8.63215 15.2242 8.72763 15.5048L8.72767 15.5049C8.77821 15.6537 8.94847 15.8064 9.25239 15.9504C9.54842 16.0906 9.93686 16.2066 10.3645 16.3025C11.2188 16.4941 12.1992 16.5993 12.8425 16.6684C12.8425 16.6684 12.8425 16.6684 12.8426 16.6684L12.8475 16.6689C13.2769 16.7148 13.6573 16.7555 13.9162 16.8042C13.9162 16.8042 13.9162 16.8042 13.9162 16.8042L13.8884 16.9516L6.62131 9.89004ZM6.62131 9.89004L6.62051 9.89004M6.62131 9.89004L6.62051 9.89004M6.62051 9.89004C6.32765 9.89161 6.11637 10.1505 6.11758 10.4361L6.62051 9.89004ZM16.8591 20.6394L16.8573 20.6397C16.838 20.6419 16.8186 20.643 16.7993 20.643C16.5332 20.643 16.3248 20.4253 16.2975 20.1592L16.4467 20.1439M16.8591 20.6394C17.148 20.6029 17.3314 20.3229 17.3022 20.0396L16.8591 20.6394ZM16.4467 20.1439C16.4673 20.345 16.6211 20.493 16.7993 20.493C16.8128 20.493 16.8265 20.4922 16.8403 20.4906L16.4467 20.1439Z" fill="#4E4E4E" stroke="#4E4E4E" stroke-width="0.3"/>
</svg>
