<svg width="24" height="22" viewBox="0 0 24 22" fill="none" xmlns="http://www.w3.org/2000/svg">
<path d="M22.4389 12.5856L22.4389 12.5856C22.8316 12.9786 23.0482 13.5012 23.0477 14.0567M22.4389 12.5856L22.8977 14.0565M22.4389 12.5856C22.0461 12.1928 21.5232 11.9762 20.9676 11.9762C20.9654 11.9762 20.9592 11.9762 20.9517 11.9766M22.4389 12.5856L22.3328 12.6916C21.9682 12.327 21.4834 12.1262 20.9676 12.1262C20.964 12.1262 20.9604 12.1262 20.9568 12.1265M23.0477 14.0567L22.8977 14.0565M23.0477 14.0567V14.0565H22.8977M23.0477 14.0567V15.5618C23.0477 15.8586 22.8069 16.0994 22.5101 16.0994H22.4017M22.8977 14.0565V15.5618C22.8977 15.7757 22.724 15.9494 22.5101 15.9494H22.4017V16.0994M22.4017 16.0994H22.2517V17.1176C22.2517 17.3316 22.078 17.5052 21.8641 17.5052H16.5916V17.6552M22.4017 16.0994V17.1176C22.4017 17.4144 22.1609 17.6552 21.8641 17.6552H16.5916M16.5916 17.6552H16.4416V20.3415C16.4416 20.5555 16.268 20.7291 16.054 20.7291H1.38761C1.17339 20.7291 1 20.5555 1 20.3415V1.38761C1 1.17339 1.17339 1 1.38761 1H16.054C16.268 1 16.4416 1.17339 16.4416 1.38761V4.23061M16.5916 17.6552V20.3415C16.5916 20.6383 16.3508 20.8791 16.054 20.8791H1.38761C1.09048 20.8791 0.85 20.6383 0.85 20.3415V1.38761C0.85 1.09055 1.09055 0.85 1.38761 0.85H16.054C16.3508 0.85 16.5916 1.09048 16.5916 1.38761V4.1004M16.5916 4.1004C16.5479 4.0932 16.5038 4.08695 16.4594 4.08166L16.4416 4.23061M16.5916 4.1004V4.23061H16.4416M16.5916 4.1004C18.0201 4.33532 19.1137 5.57604 19.1137 7.07024C19.1137 7.7933 18.8603 8.47798 18.3949 9.0224M16.4416 4.23061C17.86 4.39961 18.9637 5.6074 18.9637 7.07024C18.9637 7.77854 18.7081 8.4473 18.2399 8.97186M18.2399 8.97186L18.3894 8.95974C18.391 8.9791 18.3928 9.00004 18.3949 9.0224M18.2399 8.97186C18.2619 9.24267 18.3321 9.82435 18.5521 10.3412M18.2399 8.97186L18.3518 9.07175C18.3664 9.05543 18.3807 9.03898 18.3949 9.0224M18.3949 9.0224C18.4217 9.30718 18.495 9.82406 18.6901 10.2824M18.5521 10.3412L18.6901 10.2824C18.6901 10.2824 18.6901 10.2824 18.6901 10.2824M18.5521 10.3412C19.3072 12.1152 20.8786 12.126 20.9541 12.1265C20.9556 12.1265 20.9565 12.1265 20.9568 12.1265M18.5521 10.3412L18.6901 10.2824M18.6901 10.2824C19.3876 11.9211 20.8091 11.9747 20.9517 11.9766M20.9568 12.1265L20.9461 11.9769C20.948 11.9767 20.9499 11.9766 20.9517 11.9766M20.9568 12.1265L20.9632 11.9766C20.963 11.9766 20.9624 11.9766 20.9613 11.9766C20.9594 11.9766 20.9562 11.9766 20.9517 11.9766M17.4644 8.44552L17.4645 8.4454C17.8349 8.07841 18.0385 7.59037 18.0385 7.07024C18.0385 6.00246 17.1695 5.1336 16.1011 5.13335L17.4644 8.44552ZM17.4644 8.44552C17.3597 8.54953 17.3018 8.69183 17.3054 8.84009L17.3054 8.84042M17.4644 8.44552L17.3054 8.84042M17.3054 8.84042C17.3065 8.88255 17.3325 9.83717 17.7008 10.7032L17.7008 10.7033M17.3054 8.84042L17.7008 10.7033M17.7008 10.7033C18.6941 13.0379 20.8043 13.0509 20.9705 13.0512C21.2382 13.0521 21.4894 13.1565 21.6783 13.3457L21.6784 13.3458M17.7008 10.7033L21.6784 13.3458M21.6784 13.3458C21.8684 13.5358 21.9727 13.7875 21.9725 14.0559V14.056V15.0239M21.6784 13.3458L21.7845 13.2397C22.0026 13.4578 22.1227 13.7477 22.1225 14.056V15.0239H21.9725M21.9725 15.0239H21.9637C21.9332 15.0181 21.8998 15.0141 21.8641 15.0141C21.8282 15.0141 21.7949 15.0181 21.7645 15.0239H10.2299V14.056C10.2299 13.5068 10.6733 13.0586 11.2208 13.051C11.4947 13.065 13.4358 13.0706 14.4577 10.7664C14.8097 9.9733 14.8808 8.89162 14.8835 8.84804L14.8835 8.84797C14.8932 8.69457 14.8366 8.54408 14.728 8.43505C14.3645 8.06961 14.1647 7.58515 14.1647 7.06999C14.1647 6.00214 15.0335 5.13337 16.101 5.13335L21.9725 15.0239ZM13.4747 10.3305L13.4747 10.3304C13.6645 9.90313 13.753 9.32011 13.7893 9.0005C13.3362 8.45972 13.0895 7.78314 13.0895 7.07024C13.0895 5.60944 14.1353 4.39241 15.5164 4.11916V1.92522H1.92522V19.8039H15.5159V17.655H10.3944C10.099 17.655 9.8593 17.4169 9.85679 17.1218V17.1217L9.84844 16.0991H9.69179C9.39466 16.0991 9.15418 15.8582 9.15418 15.5615V14.056C9.15418 12.9088 10.0872 11.9757 11.2342 11.9757L13.4747 10.3305ZM13.4747 10.3305C12.7123 12.0498 11.3242 11.9804 11.2751 11.9774L13.4747 10.3305ZM21.3267 16.58H16.1668C16.1332 16.5725 16.0954 16.5668 16.054 16.5668C16.0126 16.5668 15.9748 16.5726 15.9414 16.58H10.9282L10.9242 16.0994H21.3267V16.58Z" fill="#4E4E4E" stroke="#4E4E4E" stroke-width="0.3"/>
<path d="M8.3521 4.8666H3.4235C3.12644 4.8666 2.88589 5.10715 2.88589 5.40421C2.88589 5.70127 3.12644 5.94182 3.4235 5.94182H8.3521C8.64916 5.94182 8.88971 5.70127 8.88971 5.40421C8.88971 5.10715 8.64916 4.8666 8.3521 4.8666Z" fill="#4E4E4E" stroke="#4E4E4E" stroke-width="0.3"/>
<path d="M8.3521 6.85195H3.4235C3.12644 6.85195 2.88589 7.0925 2.88589 7.38956C2.88589 7.68663 3.12644 7.92717 3.4235 7.92717H8.3521C8.64916 7.92717 8.88971 7.68663 8.88971 7.38956C8.88971 7.0925 8.64916 6.85195 8.3521 6.85195Z" fill="#4E4E4E" stroke="#4E4E4E" stroke-width="0.3"/>
<path d="M8.3521 8.90859H3.4235C3.12644 8.90859 2.88589 9.14914 2.88589 9.4462C2.88589 9.74327 3.12644 9.98382 3.4235 9.98382H8.3521C8.64916 9.98382 8.88971 9.74327 8.88971 9.4462C8.88971 9.14914 8.64916 8.90859 8.3521 8.90859Z" fill="#4E4E4E" stroke="#4E4E4E" stroke-width="0.3"/>
</svg>
