<svg width="16" height="17" viewBox="0 0 16 17" fill="none" xmlns="http://www.w3.org/2000/svg">
<path d="M12.2005 2.65596C11.3181 1.86643 10.1795 1.46774 8.99973 1.53335C7.81786 1.59895 6.73226 2.12082 5.94291 3.00269C4.31338 4.82363 4.46908 7.63092 6.29001 9.26045C7.1345 10.016 8.19039 10.3876 9.2431 10.3876C10.4609 10.3876 11.6738 9.88998 12.5478 8.91335C14.1771 7.09279 14.0214 4.2855 12.2005 2.65596ZM12.1296 8.5397C10.7066 10.1302 8.2545 10.2662 6.66385 8.84251C5.07319 7.41914 4.9373 4.96718 6.36048 3.37671C7.05001 2.60624 7.99843 2.15036 9.03057 2.09316C9.10403 2.08923 9.17693 2.08718 9.24983 2.08718C10.2029 2.08718 11.1106 2.43316 11.8265 3.07372C13.4171 4.49727 13.553 6.94923 12.1296 8.5397Z" fill="#E83C3C"/>
<path d="M6.85862 3.81394C6.75525 3.92946 6.76516 4.10666 6.88049 4.20983C6.93413 4.25768 7.00086 4.28123 7.0674 4.28123C7.14441 4.28123 7.22105 4.24983 7.27637 4.18778C8.25282 3.09675 9.93432 3.00366 11.0253 3.97974C11.1407 4.0831 11.3177 4.0732 11.4212 3.95787C11.5244 3.84236 11.5145 3.66516 11.3992 3.56198C10.0777 2.37955 8.04086 2.49282 6.85862 3.81394Z" fill="#E83C3C"/>
<path d="M15.2072 5.59662C15.112 4.00933 14.4045 2.55437 13.215 1.49923C12.0255 0.444093 10.4976 -0.0830094 8.90884 0.0106354C7.32174 0.105776 5.8666 0.813252 4.81165 2.00278C2.69669 4.38727 2.84884 8.01064 5.10791 10.2127L4.14099 11.3159L3.8309 11.0409C3.7152 10.9381 3.53875 10.9486 3.43595 11.0637L0.0714593 14.8235C0.0217396 14.8789 -0.00368093 14.9518 0.000431216 15.026C0.00454337 15.1002 0.0380014 15.1699 0.0933285 15.2194L1.15034 16.1654C1.20398 16.2133 1.27071 16.2368 1.33725 16.2368C1.41426 16.2368 1.4909 16.2052 1.54623 16.1433L4.9152 12.3787C4.96492 12.3232 4.99052 12.2501 4.98623 12.1755C4.98193 12.1013 4.9481 12.0314 4.89239 11.982L4.56062 11.6878L5.52697 10.5854C6.58922 11.4447 7.89333 11.9058 9.25707 11.9058C9.378 11.9058 9.49968 11.902 9.62137 11.8947C11.2085 11.7994 12.6636 11.0919 13.7187 9.90241C14.7739 8.71288 15.3023 7.18391 15.2072 5.59662ZM1.31538 15.5605L0.676319 14.9886L3.66772 11.6458L4.30959 12.2149L1.31538 15.5605ZM13.2991 9.53045C12.3434 10.608 11.0253 11.2488 9.58772 11.3349C8.15034 11.4235 6.76492 10.9422 5.68735 9.98671C3.46305 8.01381 3.25838 4.59905 5.23127 2.37475C6.18697 1.29718 7.5051 0.65643 8.94267 0.570261C9.05295 0.563533 9.16286 0.560355 9.27258 0.560355C10.5911 0.560355 11.8483 1.03624 12.8432 1.91867C13.9208 2.87437 14.5616 4.1925 14.6477 5.63007C14.7337 7.06783 14.2546 8.45307 13.2991 9.53045Z" fill="#E83C3C"/>
</svg>
