<svg width="15" height="18" viewBox="0 0 15 18" fill="none" xmlns="http://www.w3.org/2000/svg">
<path d="M12.9471 1.5514H9.97516V0.280374C9.97516 0.130841 9.84432 0 9.69479 0H5.26488C5.11535 0 4.98451 0.130841 4.98451 0.280374V1.5514H1.84432C1.19011 1.5514 0.666748 2.07477 0.666748 2.72897V16.8224C0.666748 17.4766 1.19011 18 1.84432 18H12.9658C13.62 18 14.1434 17.4766 14.1434 16.8224V2.72897C14.1247 2.07477 13.6013 1.5514 12.9471 1.5514ZM5.26488 5.17757H9.69479C9.84432 5.17757 9.97516 5.04673 9.97516 4.8972V3.68224H11.9378V15.7757H2.85366V3.70093H4.98451V4.8972C4.98451 5.06542 5.11535 5.17757 5.26488 5.17757ZM9.41441 0.560748V3.40187V4.61682H5.54525V3.40187V1.81308V0.560748H9.41441ZM13.5639 16.8037C13.5639 17.1402 13.2836 17.4206 12.9471 17.4206H1.84432C1.50787 17.4206 1.2275 17.1402 1.2275 16.8037V2.72897C1.2275 2.39252 1.50787 2.11215 1.84432 2.11215H4.98451V3.14019H2.57329C2.42376 3.14019 2.29292 3.27103 2.29292 3.42056V16.0748C2.29292 16.2243 2.42376 16.3551 2.57329 16.3551H12.2182C12.3677 16.3551 12.4985 16.2243 12.4985 16.0748V3.42056C12.4985 3.27103 12.3677 3.14019 12.2182 3.14019H9.97516V2.11215H12.9471C13.2836 2.11215 13.5639 2.39252 13.5639 2.72897V16.8037Z" fill="#E83C3C"/>
<path d="M3.54529 8.33604C3.54529 8.48557 3.67613 8.61641 3.82566 8.61641H11.0219C11.1715 8.61641 11.3023 8.48557 11.3023 8.33604C11.3023 8.18651 11.1715 8.05566 11.0219 8.05566H3.82566C3.67613 8.05566 3.54529 8.18651 3.54529 8.33604Z" fill="#E83C3C"/>
<path d="M11.0219 10.0186H3.82566C3.67613 10.0186 3.54529 10.1494 3.54529 10.2989C3.54529 10.4485 3.67613 10.5793 3.82566 10.5793H11.0219C11.1715 10.5793 11.3023 10.4485 11.3023 10.2989C11.3023 10.1494 11.1715 10.0186 11.0219 10.0186Z" fill="#E83C3C"/>
<path d="M11.0219 12.0752H3.82566C3.67613 12.0752 3.54529 12.206 3.54529 12.3556C3.54529 12.5051 3.67613 12.6359 3.82566 12.6359H11.0219C11.1715 12.6359 11.3023 12.5051 11.3023 12.3556C11.3023 12.206 11.1715 12.0752 11.0219 12.0752Z" fill="#E83C3C"/>
</svg>
