<svg width="35" height="34" viewBox="0 0 35 34" fill="none" xmlns="http://www.w3.org/2000/svg">
<circle cx="17.75" cy="17" r="14.875" fill="white"/>
<path d="M17.75 0C8.36125 0 0.75 7.61125 0.75 17C0.75 26.3887 8.36125 34 17.75 34C27.1387 34 34.75 26.3887 34.75 17C34.75 7.61125 27.1387 0 17.75 0ZM22.7446 9.74418C21.9366 9.74418 21.1233 9.74418 20.3156 9.74418C19.8043 9.71108 19.2769 10.1013 19.1834 10.6126C19.1724 11.4975 19.1779 12.3822 19.1779 13.2671C20.3649 13.2726 21.5522 13.2671 22.7395 13.2726C22.6516 14.553 22.4923 15.8282 22.3054 17.0924C21.2557 17.1034 20.206 17.0924 19.1562 17.0979C19.1452 20.8735 19.1617 24.6437 19.1507 28.4196C17.5897 28.4251 16.0346 28.4141 14.4736 28.4251C14.446 24.6495 14.4736 20.8739 14.457 17.0979C13.6986 17.0924 12.9346 17.1034 12.1762 17.0924C12.1817 15.8227 12.1762 14.5534 12.1762 13.2892C12.9346 13.2781 13.6986 13.2892 14.457 13.2837C14.4791 12.0526 14.4349 10.816 14.4791 9.58491C14.5615 8.60101 14.9297 7.61746 15.6609 6.94141C16.5458 6.10058 17.7986 5.81479 18.9859 5.7817C20.239 5.77066 21.4922 5.77618 22.745 5.77618C22.7502 7.10069 22.7502 8.41967 22.7446 9.74418Z" fill="#BDBDBD"/>
</svg>
