<svg width="24" height="23" viewBox="0 0 24 23" fill="none" xmlns="http://www.w3.org/2000/svg">
<circle cx="11.875" cy="11.5" r="10.0625" fill="white"/>
<path d="M11.875 0C5.52379 0 0.375 5.14879 0.375 11.5C0.375 17.8512 5.52379 23 11.875 23C18.2262 23 23.375 17.8512 23.375 11.5C23.375 5.14879 18.2262 0 11.875 0ZM15.2537 6.59165C14.7071 6.59165 14.1569 6.59165 13.6105 6.59165C13.2647 6.56926 12.9079 6.83326 12.8447 7.1791C12.8372 7.77775 12.841 8.37617 12.841 8.97481C13.6439 8.97855 14.4471 8.97481 15.2502 8.97855C15.1908 9.84468 15.083 10.7073 14.9566 11.5625C14.2465 11.57 13.5364 11.5625 12.8263 11.5662C12.8188 14.1203 12.83 16.6707 12.8225 19.225C11.7666 19.2288 10.7146 19.2213 9.65858 19.2288C9.63993 16.6747 9.65858 14.1206 9.64739 11.5662C9.13433 11.5625 8.61754 11.57 8.10448 11.5625C8.10821 10.7036 8.10448 9.84492 8.10448 8.98974C8.61754 8.98228 9.13433 8.98974 9.64739 8.98601C9.66231 8.15322 9.63246 7.3167 9.66231 6.48391C9.71805 5.81833 9.96712 5.15299 10.4618 4.69566C11.0604 4.12687 11.9079 3.93354 12.7111 3.91115C13.5588 3.90368 14.4065 3.90742 15.254 3.90742C15.2575 4.8034 15.2575 5.69566 15.2537 6.59165Z" fill="#BDBDBD"/>
</svg>
