<svg width="24" height="23" viewBox="0 0 24 23" fill="none" xmlns="http://www.w3.org/2000/svg">
<circle cx="12.25" cy="11.5" r="10.0625" fill="white"/>
<path d="M12.25 0C5.89879 0 0.75 5.14879 0.75 11.5C0.75 17.8512 5.89879 23 12.25 23C18.6012 23 23.75 17.8512 23.75 11.5C23.75 5.14879 18.6012 0 12.25 0ZM17.2369 13.0201C17.3274 13.132 17.5427 13.35 17.8832 13.6747H17.8911L17.899 13.6824L17.9069 13.6905L17.923 13.7064C18.673 14.4032 19.181 14.9911 19.4471 15.4699C19.4632 15.4963 19.4804 15.5299 19.4991 15.5697C19.5175 15.6096 19.5361 15.68 19.5548 15.781C19.5732 15.8825 19.5718 15.9725 19.5508 16.0522C19.5296 16.1318 19.4632 16.2055 19.3514 16.2717C19.2397 16.3384 19.0828 16.3715 18.8806 16.3715L16.8379 16.4037C16.7104 16.4303 16.5613 16.417 16.3911 16.3638C16.2206 16.3104 16.0826 16.2519 15.9762 16.1882L15.8165 16.0921C15.6567 15.9804 15.4706 15.8102 15.2579 15.5816C15.045 15.3528 14.8629 15.1467 14.7113 14.9632C14.5597 14.7796 14.3974 14.6257 14.2243 14.5002C14.0513 14.3752 13.9011 14.334 13.7736 14.3766C13.7577 14.3822 13.7362 14.3916 13.7097 14.4046C13.6828 14.4179 13.6378 14.4562 13.5739 14.5203C13.51 14.5842 13.4529 14.6628 13.4023 14.7556C13.3517 14.8489 13.3064 14.9872 13.2666 15.1707C13.2267 15.354 13.2092 15.5604 13.2148 15.7892C13.2148 15.8687 13.2052 15.9422 13.1868 16.0086C13.1681 16.0751 13.1481 16.1243 13.1269 16.156L13.0949 16.1959C12.9991 16.2973 12.8582 16.3556 12.6721 16.3715H11.7544C11.3766 16.393 10.9883 16.3491 10.5896 16.24C10.1908 16.1306 9.84072 15.99 9.54035 15.8169C9.23951 15.6444 8.96572 15.4688 8.71852 15.2906C8.47108 15.1122 8.28358 14.9594 8.15602 14.8319L7.95662 14.6402C7.90345 14.5872 7.83022 14.5072 7.73717 14.4007C7.64412 14.2943 7.45406 14.0525 7.16674 13.6747C6.87943 13.2969 6.59748 12.8955 6.3209 12.4697C6.04431 12.0441 5.71852 11.4827 5.34328 10.7859C4.96828 10.0893 4.62127 9.3659 4.30201 8.61567C4.27006 8.53078 4.25396 8.45895 4.25396 8.40042C4.25396 8.34212 4.26189 8.29944 4.27799 8.27262L4.30993 8.22481C4.38969 8.1236 4.54128 8.07299 4.76469 8.07299L6.95103 8.05714C7.01493 8.06786 7.07603 8.08512 7.13456 8.10914C7.1931 8.13293 7.23577 8.15555 7.26236 8.17677L7.30224 8.20079C7.38736 8.25956 7.45103 8.34445 7.4937 8.45616C7.60005 8.72248 7.72248 8.99767 7.86077 9.28218C7.99907 9.5667 8.10821 9.78358 8.18797 9.93237L8.31553 10.1639C8.46968 10.483 8.6187 10.7598 8.76236 10.9937C8.90625 11.2278 9.03498 11.4102 9.14949 11.5403C9.26376 11.6707 9.37407 11.7733 9.48064 11.8475C9.58699 11.9221 9.67747 11.9594 9.7521 11.9594C9.82649 11.9594 9.89832 11.9461 9.96758 11.9195C9.97808 11.9142 9.99137 11.9009 10.0075 11.8797C10.0236 11.8584 10.0553 11.7999 10.1033 11.7038C10.1511 11.6082 10.187 11.4832 10.2111 11.3288C10.2351 11.1749 10.2603 10.9594 10.2868 10.6828C10.3134 10.406 10.3134 10.0737 10.2868 9.6854C10.2761 9.47248 10.2521 9.27845 10.215 9.10285C10.1777 8.92747 10.1404 8.80504 10.1033 8.73577L10.0553 8.64016C9.92234 8.45942 9.69636 8.34492 9.3771 8.29688C9.30784 8.28661 9.32113 8.22271 9.41698 8.10564C9.50746 8.00443 9.60844 7.92491 9.72015 7.86614C10.0021 7.72808 10.6378 7.66418 11.6273 7.67444C12.0634 7.68004 12.4226 7.71432 12.7045 7.77822C12.8109 7.80504 12.9 7.84072 12.9718 7.88596C13.0436 7.93097 13.0982 7.9951 13.1355 8.07719C13.1726 8.15975 13.2006 8.24487 13.2192 8.33256C13.2379 8.42048 13.2472 8.54174 13.2472 8.69566C13.2472 8.85005 13.2446 8.9965 13.2393 9.13456C13.2339 9.27285 13.2274 9.46059 13.2194 9.69706C13.2115 9.93377 13.2073 10.1535 13.2073 10.3554C13.2073 10.4142 13.2048 10.5257 13.1994 10.6905C13.194 10.8556 13.1924 10.9832 13.1954 11.0735C13.198 11.1639 13.2073 11.2719 13.2232 11.3967C13.2393 11.5217 13.2698 11.6257 13.3151 11.7078C13.3601 11.7903 13.42 11.8554 13.4946 11.9032C13.5371 11.9142 13.5823 11.9247 13.6304 11.9354C13.6782 11.9459 13.7472 11.917 13.8377 11.8475C13.9279 11.7785 14.0292 11.6866 14.1409 11.5723C14.2526 11.4583 14.3909 11.2801 14.5557 11.0378C14.7204 10.7962 14.9014 10.51 15.0982 10.18C15.4174 9.62687 15.702 9.02822 15.952 8.38456C15.9732 8.33116 15.9998 8.28475 16.0317 8.24487C16.0637 8.20476 16.0928 8.17677 16.1194 8.16091L16.1514 8.13689C16.1618 8.13153 16.1751 8.125 16.1912 8.11707C16.2073 8.10938 16.2418 8.10121 16.295 8.09305C16.3482 8.08535 16.4014 8.08395 16.4548 8.08932L18.7528 8.07299C18.9601 8.04664 19.1304 8.05317 19.2633 8.09282C19.3962 8.1327 19.4788 8.17677 19.5107 8.22458L19.5588 8.30434C19.681 8.64506 19.2822 9.42654 18.3619 10.6502C18.2341 10.8207 18.0611 11.0469 17.8433 11.3286C17.4284 11.8608 17.1891 12.2092 17.1257 12.3745C17.0347 12.5921 17.0721 12.8076 17.2369 13.0201Z" fill="#BDBDBD"/>
</svg>
