<svg width="23" height="23" viewBox="0 0 23 23" fill="none" xmlns="http://www.w3.org/2000/svg">
<path d="M10.1948 13.1826L13.7562 11.2934L10.1948 9.44238V13.1826Z" fill="#BDBDBD"/>
<path d="M11.5 0C5.14879 0 0 5.14879 0 11.5C0 17.8512 5.14879 23 11.5 23C17.8512 23 23 17.8512 23 11.5C23 5.14879 17.8512 0 11.5 0ZM17.9209 14.1784C17.7677 15.1486 17.2987 15.6754 16.3125 15.7868C15.2104 15.9114 12.7323 15.9688 11.6308 15.9688C10.4911 15.9688 8.1861 15.9209 7.03545 15.8251C6.04641 15.7428 5.3715 15.1903 5.23554 14.2071C5.13666 13.4911 5.07276 12.6402 5.07276 11.2871C5.07276 9.78078 5.1271 9.14342 5.25466 8.46292C5.4368 7.49184 5.90042 7.02146 6.95872 6.91208C8.06926 6.79711 9.11917 6.73974 11.4681 6.73974C12.6164 6.73974 15.0921 6.79921 16.2358 6.90252C17.2346 6.99277 17.7973 7.60378 17.9207 8.57789C18.0068 9.2577 18.0835 10.2309 18.0835 11.2778C18.0837 13.1157 17.9209 14.1784 17.9209 14.1784Z" fill="#BDBDBD"/>
</svg>
