<svg width="21" height="20" viewBox="0 0 21 20" fill="none" xmlns="http://www.w3.org/2000/svg">
<path d="M11.7596 14.5483L11.7596 14.5483L14.2965 18.047H19.0027V10.7533H8.0034C7.69402 10.7533 7.42961 10.5138 7.42961 10.2018C7.42961 9.88954 7.69409 9.65033 8.0034 9.65033H19.0027V1.95297H11.5379V6.92996C11.5379 7.2423 11.273 7.48145 10.9641 7.48145C10.6551 7.48145 10.3903 7.2423 10.3903 6.92996V1.95297H1.9976V12.2977H5.3315C5.64088 12.2977 5.9053 12.5373 5.9053 12.8492C5.9053 13.1612 5.64088 13.4007 5.3315 13.4007H1.9976V18.047H8.36448C8.67386 18.047 8.93828 18.2866 8.93828 18.5985C8.93828 18.9105 8.67386 19.15 8.36448 19.15H1.4238C1.11442 19.15 0.85 18.9105 0.85 18.5985V1.40149C0.85 1.08922 1.11448 0.85 1.4238 0.85H19.5765C19.8853 0.85 20.1504 1.08909 20.15 1.40141M11.7596 14.5483L20 18.5982C20 18.8199 19.8101 18.9997 19.5762 18.9997H13.9968C13.8572 18.9997 13.7264 18.9347 13.6475 18.8258M11.7596 14.5483C11.5786 14.2989 11.2254 14.2398 10.9673 14.4069L10.967 14.4071C10.7043 14.5779 10.634 14.9243 10.8179 15.1789L10.818 15.1792L13.526 18.9137M11.7596 14.5483L13.6475 18.8258M20.15 1.40141L20 1.40122H20.15V1.40141ZM20.15 1.40141V18.5982C20.15 18.9102 19.8852 19.1497 19.5762 19.1497H13.9968C13.8114 19.1497 13.6344 19.0634 13.526 18.9137M13.526 18.9137L13.5261 18.9138L13.6475 18.8258M13.526 18.9137L13.6475 18.8258" fill="#4E4E4E" stroke="#4E4E4E" stroke-width="0.3"/>
</svg>
