<svg width="21" height="27" viewBox="0 0 21 27" fill="none" xmlns="http://www.w3.org/2000/svg">
<path d="M18.2422 3.02824H14.2195V1.39366C14.2195 1.10086 13.9686 0.85 13.6758 0.85H7.45599C7.1632 0.85 6.91234 1.10086 6.91234 1.39366V3.02824H2.65336C1.65199 3.02824 0.85 3.83023 0.85 4.83161V24.6195C0.85 25.6209 1.65199 26.4229 2.65336 26.4229H18.2685C19.2698 26.4229 20.0718 25.6209 20.0718 24.6195V4.83161H20.0719L20.0718 4.82732C20.0433 3.83011 19.2444 3.02824 18.2422 3.02824ZM7.45599 8.41955H13.6758C13.9686 8.41955 14.2195 8.16869 14.2195 7.8759V6.32004H16.6751V22.9998H4.22053V6.34629H6.91234V7.8759C6.91234 8.20143 7.16985 8.41955 7.45599 8.41955ZM13.1321 1.93732V5.77639V7.33224H7.99965V5.77639V3.54566V1.93732H13.1321ZM18.9583 24.5932C18.9583 24.9828 18.6318 25.3093 18.2422 25.3093H2.65336C2.26382 25.3093 1.93732 24.9828 1.93732 24.5932V4.83161C1.93732 4.44206 2.26382 4.11556 2.65336 4.11556H6.91234V5.25897H3.67688C3.38408 5.25897 3.13322 5.50984 3.13322 5.80263V23.5697C3.13322 23.8625 3.38408 24.1134 3.67688 24.1134H17.2187C17.5115 24.1134 17.7624 23.8625 17.7624 23.5697V5.80263C17.7624 5.50984 17.5115 5.25897 17.2187 5.25897H14.2195V4.11556H18.2422C18.6318 4.11556 18.9583 4.44206 18.9583 4.83161V24.5932Z" fill="#4E4E4E" stroke="#4E4E4E" stroke-width="0.3"/>
<path d="M4.8915 12.7052C4.8915 12.998 5.14237 13.2488 5.43516 13.2488H15.5391C15.8319 13.2488 16.0827 12.998 16.0827 12.7052C16.0827 12.4124 15.8319 12.1615 15.5391 12.1615H5.43516C5.14237 12.1615 4.8915 12.4124 4.8915 12.7052Z" fill="#4E4E4E" stroke="#4E4E4E" stroke-width="0.3"/>
<path d="M15.5391 14.9164H5.43516C5.14237 14.9164 4.8915 15.1673 4.8915 15.4601C4.8915 15.7529 5.14237 16.0037 5.43516 16.0037H15.5391C15.8319 16.0037 16.0827 15.7529 16.0827 15.4601C16.0827 15.1673 15.8319 14.9164 15.5391 14.9164Z" fill="#4E4E4E" stroke="#4E4E4E" stroke-width="0.3"/>
<path d="M15.5391 17.8031H5.43516C5.14237 17.8031 4.8915 18.054 4.8915 18.3468C4.8915 18.6396 5.14237 18.8904 5.43516 18.8904H15.5391C15.8319 18.8904 16.0827 18.6396 16.0827 18.3468C16.0827 18.054 15.8319 17.8031 15.5391 17.8031Z" fill="#4E4E4E" stroke="#4E4E4E" stroke-width="0.3"/>
</svg>
