<svg width="22" height="22" viewBox="0 0 22 22" fill="none" xmlns="http://www.w3.org/2000/svg">
<path d="M21.15 12.1724L21.15 12.1708C21.1269 9.9833 19.6772 8.04633 17.642 7.41675V6.99184C18.419 6.49651 18.9177 5.62251 18.9177 4.67816V3.57471C18.9177 2.06788 17.7128 0.85 16.2164 0.85C14.7217 0.85 13.4924 2.06614 13.4924 3.57471V4.67816C13.4924 5.59738 13.9458 6.4504 14.7224 6.94585V7.41555C14.4594 7.4948 14.2091 7.60071 13.962 7.73263C13.406 6.58817 12.2346 5.79253 10.8861 5.79253C9.5555 5.79253 8.42481 6.5503 7.85386 7.67525C7.63775 7.57568 7.41347 7.4779 7.18645 7.41284V6.99184C7.96346 6.49651 8.46207 5.62251 8.46207 4.67816V3.57471C8.46207 2.06788 7.25725 0.85 5.76082 0.85C4.26439 0.85 3.05957 2.06788 3.05957 3.57471V4.67816C3.05957 5.59738 3.51298 6.4504 4.28964 6.94585V7.41754C2.2341 8.0672 0.85 9.96078 0.85 12.1494C0.85 12.4149 1.07532 12.6443 1.34169 12.6443H8.07085C8.33913 13.0487 8.70034 13.392 9.11879 13.6581V14.4955C6.40151 15.2856 4.56298 17.7778 4.56298 20.6552C4.56298 20.9206 4.7883 21.15 5.05467 21.15H16.7859C17.0522 21.15 17.2776 20.9206 17.2776 20.6552C17.2776 17.7992 15.3493 15.264 12.6534 14.4949V13.7062C13.0944 13.4381 13.4589 13.0915 13.7459 12.6672H20.6583C20.9247 12.6672 21.15 12.4379 21.15 12.1724ZM1.84852 11.6776C2.04199 10.0242 3.2457 8.68194 4.8841 8.29542L4.88414 8.29559L4.89122 8.29355C5.10728 8.23125 5.27301 8.03996 5.27301 7.8046V6.65517C5.27301 6.4706 5.18039 6.29466 5.00344 6.21992C4.41711 5.92182 4.04294 5.33029 4.04294 4.67816V3.57471C4.04294 2.62177 4.8199 1.83966 5.76082 1.83966C6.70174 1.83966 7.4787 2.62177 7.4787 3.57471V4.67816C7.4787 5.32916 7.08291 5.9442 6.49534 6.24295C6.32353 6.31593 6.20307 6.50973 6.20307 6.70115V7.8046C6.20307 8.03996 6.3688 8.23125 6.58487 8.29355L6.58482 8.29372L6.59177 8.29537C6.9304 8.37578 7.2505 8.49236 7.5524 8.64503C7.51842 8.84827 7.50148 9.05394 7.50148 9.27586V10.7471C7.50148 11.0632 7.54951 11.3777 7.63174 11.6776H1.84852ZM12.0385 15.3764C14.3339 15.8791 16.039 17.8574 16.259 20.1833H5.55722C5.75397 17.8599 7.41519 15.924 9.71223 15.3991L9.71228 15.3993L9.72037 15.397C9.93644 15.3347 10.1022 15.1434 10.1022 14.908V13.3908C10.1022 13.2059 10.0093 13.0297 9.83176 12.9552C8.99831 12.5434 8.48485 11.701 8.48485 10.7701V9.29885C8.48485 7.93299 9.57985 6.85115 10.9089 6.85115C12.2371 6.85115 13.3329 7.95511 13.3329 9.29885V10.7471C13.3329 11.6768 12.7979 12.5425 11.9412 12.9549C11.7685 13.0274 11.6473 13.2218 11.6473 13.4138V14.8851C11.6473 15.1204 11.813 15.3117 12.0291 15.374L12.029 15.3743L12.0385 15.3764ZM15.3153 8.31878L15.3153 8.31904L15.324 8.31654C15.5401 8.25424 15.7058 8.06294 15.7058 7.82759V6.67816C15.7058 6.49359 15.6132 6.31765 15.4362 6.24291C14.8499 5.94481 14.4757 5.35327 14.4757 4.70115V3.5977C14.4757 2.64476 15.2527 1.86264 16.1936 1.86264C17.1345 1.86264 17.9115 2.64476 17.9115 3.5977V4.70115C17.9115 5.35215 17.5157 5.96719 16.9281 6.26594C16.7563 6.33892 16.6359 6.53272 16.6359 6.72414V7.82759C16.6359 8.06294 16.8016 8.25424 17.0177 8.31654L17.0176 8.31681L17.0266 8.31882C18.6611 8.68301 19.8868 10.0644 20.1034 11.7L14.1858 11.6783C14.2682 11.3782 14.3163 11.0635 14.3163 10.7471V9.27586C14.3163 9.09802 14.3003 8.90218 14.2672 8.72777C14.5931 8.5365 14.9537 8.39987 15.3153 8.31878Z" fill="#4E4E4E" stroke="#4E4E4E" stroke-width="0.3"/>
</svg>
