<svg width="29" height="20" viewBox="0 0 29 20" fill="none" xmlns="http://www.w3.org/2000/svg">
<path d="M12.0907 8.40078C9.79491 8.40078 7.92715 10.2685 7.92715 12.5643C7.92715 14.8601 9.79463 16.7275 12.0907 16.7275C14.3867 16.7275 16.2542 14.8601 16.2542 12.5643C16.2542 10.2685 14.3864 8.40078 12.0907 8.40078ZM12.0907 15.5646C10.4365 15.5646 9.09033 14.2188 9.09033 12.5646C9.09033 10.9104 10.4365 9.56425 12.0907 9.56425C13.7451 9.56425 15.091 10.9104 15.091 12.5646C15.091 14.2188 13.7449 15.5646 12.0907 15.5646Z" fill="white" stroke="white" stroke-width="0.3"/>
<path d="M3.64302 8.40078C3.32165 8.40078 3.06143 8.661 3.06143 8.98237V16.1457C3.06143 16.4667 3.32158 16.7273 3.64302 16.7273C3.96445 16.7273 4.22461 16.4667 4.22461 16.1457V8.98237C4.22461 8.661 3.96439 8.40078 3.64302 8.40078Z" fill="white" stroke="white" stroke-width="0.3"/>
<path d="M20.4028 8.40078C20.0818 8.40078 19.8212 8.66094 19.8212 8.98237V16.1457C19.8212 16.4667 20.0817 16.7273 20.4028 16.7273C20.7239 16.7273 20.9844 16.4667 20.9844 16.1457V8.98237C20.9844 8.661 20.7242 8.40078 20.4028 8.40078Z" fill="white" stroke="white" stroke-width="0.3"/>
<path d="M5.78598 1.43159V3.41625H4.00245C3.68108 3.41625 3.42085 3.67647 3.42085 3.99784V6.22103H1.43159C1.11022 6.22103 0.85 6.48125 0.85 6.80262V18.3253C0.85 18.6463 1.11016 18.9069 1.43159 18.9069H22.5563C22.8774 18.9069 23.1379 18.6464 23.1379 18.3253V16.1021H25.1275C25.4486 16.1021 25.7091 15.8416 25.7091 15.5205V13.5358H27.4923C27.8134 13.5358 28.0739 13.2753 28.0739 12.9543V1.43159V1.43141C28.0735 1.11015 27.8131 0.85 27.492 0.85H6.36758C6.04621 0.85 5.78598 1.11022 5.78598 1.43159ZM2.01319 17.7437V7.38421H21.9747V15.5111C21.9746 15.514 21.9745 15.5172 21.9745 15.5205C21.9745 15.5239 21.9746 15.527 21.9747 15.53V17.7437H2.01319ZM24.5456 14.9389H23.1376V6.80262C23.1376 6.48119 22.8771 6.22103 22.556 6.22103H4.58404V4.57944H24.5456V14.9389ZM26.9104 12.3727H25.7088V3.99784C25.7088 3.67641 25.4482 3.41625 25.1272 3.41625H6.94917V2.01319H26.9104V12.3727Z" fill="white" stroke="white" stroke-width="0.3"/>
</svg>
