<svg width="34" height="34" viewBox="0 0 34 34" fill="none" xmlns="http://www.w3.org/2000/svg">
<circle cx="17" cy="17" r="14.875" fill="white"/>
<path d="M17 0C7.61125 0 0 7.61125 0 17C0 26.3887 7.61125 34 17 34C26.3887 34 34 26.3887 34 17C34 7.61125 26.3887 0 17 0ZM24.372 19.247C24.5058 19.4125 24.824 19.7349 25.3273 20.2147H25.339L25.3507 20.2261L25.3624 20.2382L25.3862 20.2616C26.4949 21.2917 27.2458 22.1608 27.6391 22.8686C27.6629 22.9075 27.6884 22.9572 27.716 23.0161C27.7432 23.0751 27.7708 23.1792 27.7984 23.3285C27.8256 23.4784 27.8236 23.6115 27.7925 23.7294C27.7612 23.847 27.6629 23.9559 27.4978 24.0538C27.3327 24.1524 27.1006 24.2013 26.8018 24.2013L23.7821 24.2489C23.5936 24.2882 23.3733 24.2686 23.1216 24.19C22.8696 24.111 22.6655 24.0245 22.5083 23.9304L22.2722 23.7883C22.036 23.6232 21.7609 23.3716 21.4465 23.0337C21.1318 22.6955 20.8625 22.3908 20.6384 22.1194C20.4143 21.8481 20.1744 21.6206 19.9186 21.4351C19.6628 21.2503 19.4408 21.1893 19.2522 21.2524C19.2288 21.2607 19.1971 21.2745 19.1578 21.2938C19.1181 21.3134 19.0516 21.37 18.9571 21.4648C18.8626 21.5592 18.7782 21.6754 18.7034 21.8126C18.6286 21.9505 18.5617 22.155 18.5027 22.4263C18.4438 22.6972 18.4179 23.0023 18.4262 23.3405C18.4262 23.4581 18.4121 23.5667 18.3848 23.6649C18.3573 23.7632 18.3276 23.8359 18.2962 23.8828L18.249 23.9418C18.1073 24.0917 17.8991 24.1779 17.624 24.2013H16.2674C15.7089 24.2331 15.1349 24.1683 14.5454 24.0069C13.9559 23.8452 13.4385 23.6373 12.9944 23.3815C12.5497 23.1264 12.145 22.8668 11.7795 22.6035C11.4138 22.3397 11.1366 22.1139 10.948 21.9254L10.6533 21.642C10.5747 21.5637 10.4664 21.4455 10.3289 21.2879C10.1913 21.1307 9.91035 20.7732 9.48562 20.2147C9.0609 19.6562 8.6441 19.0629 8.23524 18.4334C7.82637 17.8043 7.34476 16.9745 6.79007 15.9444C6.23572 14.9146 5.72274 13.8453 5.25079 12.7362C5.20356 12.6107 5.17977 12.5045 5.17977 12.418C5.17977 12.3318 5.19149 12.2687 5.21528 12.2291L5.26251 12.1584C5.38041 12.0088 5.6045 11.934 5.93476 11.934L9.16673 11.9105C9.26119 11.9264 9.35152 11.9519 9.43805 11.9874C9.52458 12.0226 9.58767 12.056 9.62697 12.0874L9.68592 12.1229C9.81175 12.2098 9.90586 12.3353 9.96895 12.5004C10.1262 12.8941 10.3071 13.3009 10.5116 13.7215C10.716 14.1421 10.8774 14.4627 10.9953 14.6826L11.1838 15.025C11.4117 15.4966 11.632 15.9058 11.8444 16.2516C12.0571 16.5977 12.2474 16.8673 12.4166 17.0596C12.5856 17.2524 12.7486 17.404 12.9062 17.5137C13.0634 17.624 13.1971 17.6791 13.3075 17.6791C13.4174 17.6791 13.5236 17.6595 13.626 17.6202C13.6415 17.6123 13.6612 17.5926 13.6849 17.5612C13.7087 17.5299 13.7556 17.4433 13.8266 17.3013C13.8973 17.16 13.9504 16.9752 13.9859 16.747C14.0214 16.5194 14.0586 16.2009 14.0979 15.792C14.1372 15.3828 14.1372 14.8915 14.0979 14.3175C14.0821 14.0028 14.0466 13.716 13.9918 13.4564C13.9366 13.1971 13.8814 13.0161 13.8266 12.9138L13.7556 12.7724C13.5591 12.5052 13.2251 12.336 12.7531 12.2649C12.6507 12.2498 12.6704 12.1553 12.8121 11.9823C12.9458 11.8326 13.0951 11.7151 13.2602 11.6282C13.677 11.4241 14.6168 11.3297 16.0795 11.3448C16.7242 11.3531 17.2551 11.4038 17.6719 11.4982C17.8291 11.5379 17.9608 11.5906 18.067 11.6575C18.1732 11.724 18.2538 11.8188 18.309 11.9402C18.3638 12.0622 18.4052 12.1881 18.4328 12.3177C18.4603 12.4477 18.4741 12.6269 18.4741 12.8545C18.4741 13.0827 18.4703 13.2992 18.4624 13.5033C18.4545 13.7077 18.4448 13.9852 18.4331 14.3348C18.4214 14.6847 18.4152 15.0094 18.4152 15.308C18.4152 15.3949 18.4114 15.5597 18.4035 15.8034C18.3955 16.0475 18.3931 16.236 18.3976 16.3695C18.4014 16.5032 18.4152 16.6628 18.4386 16.8473C18.4624 17.0321 18.5076 17.1858 18.5744 17.3072C18.641 17.4292 18.7296 17.5254 18.8399 17.5961C18.9026 17.6123 18.9695 17.6278 19.0405 17.6436C19.1112 17.6591 19.2133 17.6164 19.347 17.5137C19.4804 17.4116 19.63 17.2758 19.7952 17.1069C19.9603 16.9383 20.1647 16.6749 20.4085 16.3167C20.6519 15.9596 20.9194 15.5366 21.2104 15.0488C21.6823 14.231 22.1029 13.3461 22.4725 12.3946C22.5038 12.3156 22.5431 12.247 22.5904 12.1881C22.6376 12.1288 22.6807 12.0874 22.72 12.064L22.7672 12.0285C22.7827 12.0205 22.8024 12.0109 22.8262 11.9991C22.85 11.9878 22.901 11.9757 22.9796 11.9636C23.0582 11.9523 23.1368 11.9502 23.2157 11.9581L26.6128 11.934C26.9193 11.895 27.171 11.9047 27.3675 11.9633C27.564 12.0222 27.686 12.0874 27.7332 12.1581L27.8043 12.276C27.9849 12.7796 27.3954 13.9349 26.035 15.7438C25.8461 15.9958 25.5903 16.3302 25.2683 16.7466C24.655 17.5333 24.3013 18.0484 24.2076 18.2928C24.0731 18.6144 24.1283 18.933 24.372 19.247Z" fill="#BDBDBD"/>
</svg>
