<svg width="35" height="34" viewBox="0 0 35 34" fill="none" xmlns="http://www.w3.org/2000/svg">
<path d="M15.5706 19.488L20.8351 16.6952L15.5706 13.959V19.488Z" fill="#BDBDBD"/>
<path d="M17.5 0C8.11125 0 0.5 7.61125 0.5 17C0.5 26.3887 8.11125 34 17.5 34C26.8887 34 34.5 26.3887 34.5 17C34.5 7.61125 26.8887 0 17.5 0ZM26.9918 20.9594C26.7653 22.3935 26.0721 23.1723 24.6141 23.3371C22.9849 23.5212 19.3216 23.606 17.6934 23.606C16.0086 23.606 12.6012 23.5353 10.9002 23.3936C9.43817 23.2719 8.44048 22.4552 8.2395 21.0018C8.09332 19.9434 7.99886 18.6855 7.99886 16.6852C7.99886 14.4585 8.07919 13.5164 8.26776 12.5104C8.53701 11.0749 9.22236 10.3795 10.7868 10.2179C12.4285 10.0479 13.9805 9.96309 17.4528 9.96309C19.1503 9.96309 22.8101 10.051 24.5007 10.2037C25.9772 10.3371 26.8091 11.2404 26.9915 12.6804C27.1187 13.6853 27.2321 15.1239 27.2321 16.6715C27.2325 19.3884 26.9918 20.9594 26.9918 20.9594Z" fill="#BDBDBD"/>
</svg>
