<svg width="208" height="43" viewBox="0 0 208 43" fill="none" xmlns="http://www.w3.org/2000/svg">
    <path d="M16.8413 11.6727C17.3002 11.2136 18.0483 11.2136 18.5072 11.6727C18.9661 12.1318 18.9661 12.8802 18.5072 13.3394C18.0483 13.7985 17.3002 13.7985 16.8413 13.3394C16.3761 12.8802 16.3761 12.1318 16.8413 11.6727ZM11.674 5.16959L12.2586 9.25762L10.3413 11.1758L12.0072 12.8425L12.6735 12.1758L13.3399 16.8425L25.0072 18.5091L23.3413 16.8425C28.8669 11.3142 35.2098 8.70416 37.5105 11.006L27.5091 0.999805C25.2083 -1.30207 18.8592 1.30798 13.3399 6.83625L11.674 5.16959Z" fill="url(#paint0_linear)"/>
    <path d="M4.29989 15.1387C0.452693 19.9185 -1.1063 24.7424 0.836155 26.6858L10.8376 36.692C8.89514 34.7486 10.4541 29.9247 14.3013 25.1512L4.29989 15.1387Z" fill="#E83C3C"/>
    <path d="M21.5054 26.0181C21.0465 26.4772 20.2985 26.4772 19.8396 26.0181C19.3807 25.559 19.3807 24.8105 19.8396 24.3514C20.2985 23.8923 21.0465 23.8923 21.5054 24.3514C21.9643 24.8105 21.9643 25.5527 21.5054 26.0181ZM26.6727 32.5212L26.0881 28.4332L28.0054 26.5149L26.3396 24.8483L25.6732 25.5149L25.0069 20.8483L13.3396 19.1816L15.0054 20.8483C9.47979 26.3766 3.13695 28.9866 0.836182 26.6847L10.8376 36.691C13.1384 38.9928 19.4812 36.3828 25.0069 30.8545L26.6727 32.5212Z" fill="url(#paint1_linear)"/>
    <path d="M34.763 20.6036C38.0696 16.1446 39.3205 11.8175 37.5038 10.0062L27.5086 0C29.3191 1.81131 28.0744 6.13833 24.7678 10.5974L34.763 20.6036Z" fill="#FFE600"/>
    <path fill-rule="evenodd" clip-rule="evenodd" d="M200.205 35.7481V38.811V38.8172H208V42.0185H196.86V26.6915H207.723V29.8991H200.205V32.5468H207.164V35.7481H200.205ZM184.533 34.4399C183.948 34.0877 183.464 33.6349 183.087 33.0751C182.71 32.5154 182.522 31.7795 182.515 30.8676C182.515 30.3079 182.641 29.7733 182.892 29.2513C183.144 28.7355 183.508 28.2764 183.98 27.8739C184.451 27.4714 185.023 27.1506 185.69 26.9117C186.362 26.6664 187.11 26.5469 187.947 26.5469C188.82 26.5469 189.6 26.6727 190.285 26.9242C190.97 27.1758 191.561 27.5154 192.051 27.9431C192.548 28.3708 192.925 28.8865 193.196 29.4903C193.466 30.094 193.617 30.7418 193.654 31.4273H190.31C190.235 30.7984 190.021 30.3141 189.669 29.9808C189.311 29.6475 188.783 29.4777 188.079 29.4777C187.45 29.4777 186.966 29.6223 186.633 29.9116C186.3 30.2009 186.13 30.5217 186.13 30.8739C186.13 31.3016 186.318 31.6286 186.702 31.8487C187.079 32.0689 187.563 32.2701 188.148 32.4462C188.732 32.6223 189.361 32.811 190.027 33.006C190.694 33.2009 191.322 33.4776 191.907 33.8424C192.492 34.2072 192.969 34.6789 193.353 35.2638C193.736 35.8487 193.925 36.6097 193.925 37.5594C193.925 38.1946 193.793 38.7858 193.535 39.3455C193.277 39.9053 192.906 40.3958 192.422 40.8109C191.938 41.226 191.341 41.5594 190.624 41.7984C189.914 42.0436 189.11 42.1631 188.217 42.1631C187.268 42.1631 186.432 42.0373 185.709 41.7858C184.986 41.5342 184.363 41.1883 183.842 40.7418C183.32 40.2952 182.918 39.7606 182.628 39.1506C182.345 38.5405 182.163 37.8676 182.088 37.1443H185.57C185.715 37.7732 185.979 38.2827 186.35 38.66C186.721 39.0437 187.299 39.2323 188.079 39.2323C188.82 39.2323 189.38 39.0751 189.751 38.7606C190.122 38.4399 190.31 38.0437 190.31 37.5594C190.31 37.1128 190.122 36.7669 189.738 36.5154C189.361 36.2701 188.877 36.0437 188.292 35.8487C187.708 35.6537 187.079 35.4588 186.413 35.2638C185.746 35.0688 185.118 34.7921 184.533 34.4399ZM177.467 40.3141C176.883 40.8927 176.191 41.3392 175.393 41.6663C174.595 41.9933 173.721 42.1568 172.778 42.1506C171.829 42.1506 170.955 41.9933 170.156 41.6663C169.358 41.3392 168.667 40.8927 168.082 40.3141C167.497 39.7418 167.045 39.0625 166.718 38.2827C166.397 37.5028 166.234 36.66 166.234 35.7481V26.6915H169.578V35.7481C169.578 36.7292 169.861 37.5091 170.439 38.0877C171.011 38.66 171.791 38.9493 172.778 38.9493C173.758 38.9493 174.538 38.6663 175.116 38.0877C175.688 37.5154 175.978 36.7355 175.978 35.7481V26.6915H179.322V35.7481C179.322 36.66 179.158 37.5028 178.831 38.2827C178.505 39.0625 178.052 39.7355 177.467 40.3141ZM161.475 39.8675C160.758 40.5719 159.922 41.1317 158.954 41.5405C157.993 41.9493 156.949 42.1506 155.836 42.1506C154.724 42.1506 153.68 41.9493 152.718 41.5405C151.75 41.1317 150.914 40.5719 150.198 39.8675C149.481 39.1632 148.921 38.3393 148.513 37.3896C148.104 36.4399 147.903 35.4273 147.903 34.3519C147.903 33.2764 148.104 32.2638 148.513 31.3141C148.921 30.3707 149.481 29.5406 150.198 28.8362C150.914 28.1318 151.75 27.572 152.718 27.1632C153.68 26.7607 154.724 26.5532 155.836 26.5532C156.949 26.5532 157.986 26.7544 158.954 27.1632C159.922 27.572 160.758 28.1318 161.475 28.8362C162.192 29.5406 162.751 30.3645 163.16 31.3141C163.575 32.2638 163.776 33.2764 163.776 34.3519C163.776 35.4273 163.568 36.4399 163.16 37.3896C162.751 38.333 162.192 39.1632 161.475 39.8675ZM152.555 37.6411C152.963 38.0499 153.441 38.3707 154.001 38.6034C154.554 38.8361 155.17 38.9493 155.836 38.9493C156.503 38.9493 157.112 38.8361 157.672 38.6034C158.225 38.3707 158.709 38.0499 159.118 37.6411C159.526 37.2323 159.847 36.7544 160.08 36.1946C160.312 35.6412 160.425 35.0248 160.425 34.3581C160.425 33.6915 160.312 33.0814 160.08 32.5217C159.847 31.9682 159.526 31.484 159.118 31.0752C158.709 30.6663 158.231 30.3456 157.672 30.1129C157.119 29.8865 156.503 29.767 155.836 29.767C155.17 29.767 154.56 29.8802 154.001 30.1129C153.448 30.3456 152.963 30.6663 152.555 31.0752C152.146 31.484 151.826 31.9619 151.593 32.5217C151.361 33.0751 151.247 33.6915 151.247 34.3581C151.247 35.0248 151.361 35.6349 151.593 36.1946C151.826 36.7481 152.146 37.2323 152.555 37.6411ZM132.357 42.0185V26.6915H135.701V32.5405H141.969V26.6915H145.313V42.0185H141.969V35.6097H135.701V42.0185H132.357ZM115.642 26.6978H119.401L122.745 32.9682L126.09 26.6978H129.849L124.417 36.3078V42.0185H121.073V36.3078L115.642 26.6978ZM111.562 40.3204C110.977 40.899 110.286 41.3455 109.488 41.6726C108.689 41.9996 107.815 42.1568 106.872 42.1631C105.93 42.1631 105.056 41.9996 104.257 41.6726C103.459 41.3455 102.768 40.899 102.183 40.3204C101.598 39.748 101.146 39.0688 100.819 38.2889C100.492 37.5091 100.328 36.6663 100.328 35.7544V26.6978H103.673V35.7544C103.673 36.7355 103.956 37.5216 104.534 38.094C105.106 38.6663 105.892 38.9556 106.872 38.9556C107.853 38.9556 108.633 38.6726 109.211 38.094C109.783 37.5216 110.072 36.7355 110.072 35.7544V26.6978H113.416V35.7544C113.416 36.6663 113.253 37.5091 112.926 38.2889C112.599 39.0688 112.147 39.748 111.562 40.3204ZM91.8294 29.7607H88.6297V32.5531H91.8294C92.3072 32.5531 92.7095 32.4273 93.0238 32.1758C93.3381 31.9242 93.4953 31.5846 93.4953 31.1569C93.4953 30.7292 93.3381 30.3896 93.0238 30.138C92.7095 29.8865 92.3135 29.7607 91.8294 29.7607ZM93.6399 36.0814C93.269 35.7669 92.8101 35.6097 92.2506 35.6097V35.6034H88.6297V38.9493H92.2506C92.8038 38.9493 93.269 38.7921 93.6399 38.4776C94.0108 38.1569 94.1993 37.7606 94.1993 37.2764C94.1993 36.7984 94.0108 36.3959 93.6399 36.0814ZM96.6321 32.182C96.3995 32.6097 96.1544 32.9556 95.8966 33.2135C95.5635 33.5342 95.1989 33.7732 94.8091 33.943C95.312 34.1317 95.7646 34.3896 96.1732 34.7229C96.5064 35.0185 96.8144 35.4084 97.1036 35.8927C97.3928 36.377 97.5373 36.9808 97.5373 37.704C97.5373 38.3015 97.4242 38.855 97.1916 39.377C96.959 39.899 96.6195 40.3518 96.1858 40.7417C95.7458 41.1317 95.2177 41.4398 94.5954 41.6726C93.973 41.9053 93.2815 42.0185 92.5209 42.0185H85.2791V26.6915H92.2443C92.9672 26.6915 93.621 26.7984 94.2056 27.0123C94.7902 27.2261 95.2869 27.5091 95.6955 27.8613C96.1041 28.2135 96.4247 28.6286 96.6447 29.1003C96.8647 29.572 96.9779 30.0689 96.9779 30.5909C96.9779 31.2261 96.8647 31.7544 96.6321 32.182ZM68.6205 26.6978H72.3797L75.724 32.9682L79.0683 26.6978H82.8275L77.3962 36.3078V42.0185H74.0519V36.3078L68.6205 26.6978ZM64.5407 40.3204C63.9561 40.899 63.2646 41.3455 62.4663 41.6726C61.6679 41.9996 60.7941 42.1568 59.8449 42.1631C58.902 42.1631 58.0282 41.9996 57.2298 41.6726C56.4315 41.3455 55.74 40.899 55.1554 40.3204C54.5707 39.748 54.1181 39.0688 53.7912 38.2889C53.4706 37.5091 53.3072 36.6663 53.3072 35.7544V26.6978H56.6515V35.7544C56.6515 36.7355 56.9344 37.5216 57.5127 38.094C58.0847 38.6663 58.8642 38.9556 59.8512 38.9556C60.8318 38.9556 61.6113 38.6726 62.1897 38.094C62.7617 37.5216 63.0509 36.7355 63.0509 35.7544V26.6978H66.3952V35.7544C66.3952 36.6663 66.2317 37.5091 65.9049 38.2889C65.578 39.0688 65.1254 39.748 64.5407 40.3204ZM44.8144 29.7607H41.6085V32.5531H44.8144C45.2922 32.5531 45.6945 32.4273 46.0088 32.1758C46.3232 31.9242 46.4803 31.5846 46.4803 31.1569C46.4803 30.7292 46.3232 30.3896 46.0088 30.138C45.6945 29.8865 45.2985 29.7607 44.8144 29.7607ZM46.6123 36.0814C46.2414 35.7669 45.7825 35.6097 45.2231 35.6097V35.6034H41.6022V38.9493H45.2231C45.7762 38.9493 46.2414 38.7921 46.6123 38.4776C46.9832 38.1569 47.1718 37.7606 47.1718 37.2764C47.1718 36.7984 46.9832 36.3959 46.6123 36.0814ZM49.6109 32.182C49.3783 32.6097 49.1331 32.9556 48.8754 33.2135C48.5422 33.5342 48.1776 33.7732 47.7941 33.943C48.297 34.1317 48.7496 34.3896 49.1583 34.7229C49.4914 35.0185 49.7995 35.4084 50.0886 35.8927C50.3778 36.377 50.5224 36.9808 50.5224 37.704C50.5224 38.3015 50.4092 38.855 50.1766 39.377C49.9378 39.899 49.6046 40.3518 49.1708 40.7417C48.7308 41.1317 48.2027 41.4398 47.5804 41.6726C46.9581 41.9053 46.2666 42.0185 45.5059 42.0185H38.2642V26.6915H45.2231C45.946 26.6915 46.5997 26.7984 47.1844 27.0123C47.769 27.2261 48.2656 27.5091 48.6742 27.8613C49.0828 28.2135 49.4034 28.6286 49.6234 29.1003C49.8435 29.572 49.9566 30.0689 49.9566 30.5909C49.9566 31.2261 49.8435 31.7544 49.6109 32.182Z" fill="#181818"/>
    <defs>
    <linearGradient id="paint0_linear" x1="19.8021" y1="22.6349" x2="33.6385" y2="8.80513" gradientUnits="userSpaceOnUse">
    <stop stop-color="#E83C3C"/>
    <stop offset="1" stop-color="#9D3C3C"/>
    </linearGradient>
    <linearGradient id="paint1_linear" x1="26.365" y1="25.5778" x2="12.8805" y2="39.0558" gradientUnits="userSpaceOnUse">
    <stop stop-color="#FFE600"/>
    <stop offset="0.839779" stop-color="#FFAA00"/>
    <stop offset="1" stop-color="#FFE600"/>
    </linearGradient>
    </defs>
</svg>