<svg width="122" height="19" viewBox="0 0 122 19" fill="none" xmlns="http://www.w3.org/2000/svg">
<path d="M8.52653 5.73493C8.75886 5.50936 9.1376 5.50936 9.36993 5.73493C9.60226 5.96051 9.60226 6.32822 9.36993 6.55379C9.1376 6.77936 8.75886 6.77936 8.52653 6.55379C8.29101 6.32822 8.29101 5.96051 8.52653 5.73493ZM5.91038 2.53985L6.20637 4.54837L5.23566 5.49082L6.07906 6.30968L6.41642 5.98214L6.75378 8.27493L12.6608 9.09379L11.8174 8.27493C14.615 5.5588 17.8263 4.27645 18.9911 5.40739L13.9275 0.491172C12.7626 -0.639776 9.54816 0.642582 6.75378 3.35871L5.91038 2.53985Z" fill="url(#paint0_linear)"/>
<path d="M2.17698 7.4375C0.229193 9.78592 -0.560107 12.156 0.423335 13.1108L5.48695 18.027C4.5035 17.0722 5.2928 14.7021 7.24059 12.3568L2.17698 7.4375Z" fill="#E83C3C"/>
<path d="M10.8881 12.7827C10.6558 13.0083 10.277 13.0083 10.0447 12.7827C9.81237 12.5571 9.81237 12.1894 10.0447 11.9638C10.277 11.7383 10.6558 11.7383 10.8881 11.9638C11.1204 12.1894 11.1204 12.554 10.8881 12.7827ZM13.5043 15.9778L13.2083 13.9692L14.179 13.0268L13.3356 12.2079L12.9982 12.5355L12.6608 10.2427L6.75383 9.42383L7.59724 10.2427C4.79968 12.9588 1.58838 14.2412 0.423523 13.1102L5.48713 18.0264C6.65199 19.1574 9.86329 17.875 12.6608 15.1589L13.5043 15.9778Z" fill="url(#paint1_linear)"/>
<path d="M17.6002 10.1229C19.2743 7.93208 19.9076 5.80615 18.9879 4.91622L13.9274 0C14.844 0.889926 14.2139 3.01586 12.5398 5.20668L17.6002 10.1229Z" fill="#FFE600"/>
<path fill-rule="evenodd" clip-rule="evenodd" d="M116.946 10.6704V12.334V12.3374H121.308V14.0762H115.074V5.75142H121.154V7.49357H116.946V8.9317H120.84V10.6704H116.946ZM108.174 9.95991C107.847 9.76862 107.576 9.52266 107.365 9.21864C107.154 8.91462 107.048 8.51495 107.045 8.01963C107.045 7.71561 107.115 7.42525 107.256 7.14172C107.397 6.86161 107.601 6.61225 107.865 6.39362C108.128 6.175 108.449 6.00079 108.822 5.87098C109.198 5.73775 109.617 5.67285 110.085 5.67285C110.574 5.67285 111.01 5.74117 111.394 5.87781C111.777 6.01445 112.108 6.19891 112.382 6.4312C112.66 6.66349 112.871 6.9436 113.023 7.27153C113.174 7.59947 113.258 7.95131 113.279 8.32365H111.408C111.365 7.98206 111.246 7.71903 111.049 7.53798C110.848 7.35693 110.553 7.2647 110.159 7.2647C109.807 7.2647 109.536 7.34327 109.349 7.5004C109.163 7.65754 109.068 7.83175 109.068 8.02305C109.068 8.25533 109.173 8.43297 109.388 8.55253C109.599 8.67209 109.87 8.7814 110.197 8.87704C110.524 8.97269 110.876 9.07517 111.249 9.18107C111.622 9.28696 111.974 9.43726 112.301 9.63539C112.628 9.83352 112.896 10.0897 113.111 10.4074C113.325 10.7251 113.431 11.1384 113.431 11.6542C113.431 11.9993 113.357 12.3204 113.213 12.6244C113.068 12.9284 112.861 13.1948 112.59 13.4203C112.319 13.6458 111.985 13.8268 111.584 13.9566C111.186 14.0898 110.736 14.1547 110.236 14.1547C109.705 14.1547 109.237 14.0864 108.832 13.9498C108.428 13.8131 108.079 13.6253 107.787 13.3827C107.495 13.1402 107.27 12.8498 107.108 12.5185C106.95 12.1871 106.848 11.8216 106.806 11.4288H108.755C108.836 11.7704 108.983 12.0471 109.191 12.252C109.399 12.4604 109.722 12.5629 110.159 12.5629C110.574 12.5629 110.887 12.4775 111.094 12.3067C111.302 12.1325 111.408 11.9173 111.408 11.6542C111.408 11.4117 111.302 11.2238 111.087 11.0872C110.876 10.954 110.605 10.831 110.278 10.7251C109.951 10.6192 109.599 10.5133 109.226 10.4074C108.853 10.3015 108.501 10.1512 108.174 9.95991ZM104.22 13.1504C103.892 13.4647 103.505 13.7072 103.058 13.8849C102.612 14.0625 102.123 14.1513 101.595 14.1479C101.064 14.1479 100.574 14.0625 100.128 13.8849C99.6808 13.7072 99.2938 13.4647 98.9666 13.1504C98.6394 12.8396 98.386 12.4707 98.2031 12.0471C98.0236 11.6235 97.9322 11.1658 97.9322 10.6704V5.75142H99.8039V10.6704C99.8039 11.2033 99.9623 11.6269 100.286 11.9412C100.606 12.252 101.042 12.4092 101.595 12.4092C102.144 12.4092 102.58 12.2555 102.904 11.9412C103.224 11.6303 103.386 11.2067 103.386 10.6704V5.75142H105.257V10.6704C105.257 11.1658 105.166 11.6235 104.983 12.0471C104.8 12.4707 104.547 12.8362 104.22 13.1504ZM95.2687 12.9079C94.8676 13.2905 94.3997 13.5945 93.8579 13.8166C93.3195 14.0386 92.7355 14.1479 92.1127 14.1479C91.49 14.1479 90.9059 14.0386 90.3676 13.8166C89.8258 13.5945 89.3578 13.2905 88.9567 12.9079C88.5556 12.5253 88.2425 12.0778 88.0138 11.562C87.7851 11.0462 87.6725 10.4962 87.6725 9.91209C87.6725 9.32795 87.7851 8.77798 88.0138 8.26217C88.2425 7.74977 88.5556 7.29886 88.9567 6.91627C89.3578 6.53368 89.8258 6.22966 90.3676 6.00762C90.9059 5.78899 91.49 5.67627 92.1127 5.67627C92.7355 5.67627 93.316 5.78558 93.8579 6.00762C94.3997 6.22966 94.8676 6.53368 95.2687 6.91627C95.6698 7.29886 95.983 7.74635 96.2117 8.26217C96.4439 8.77798 96.5565 9.32795 96.5565 9.91209C96.5565 10.4962 96.4404 11.0462 96.2117 11.562C95.983 12.0744 95.6698 12.5253 95.2687 12.9079ZM90.2761 11.6986C90.5048 11.9207 90.7722 12.0949 91.0854 12.2213C91.395 12.3477 91.7398 12.4092 92.1127 12.4092C92.4857 12.4092 92.827 12.3477 93.1401 12.2213C93.4497 12.0949 93.7206 11.9207 93.9493 11.6986C94.178 11.4766 94.3575 11.217 94.4876 10.913C94.6178 10.6124 94.6812 10.2776 94.6812 9.9155C94.6812 9.55341 94.6178 9.22206 94.4876 8.91804C94.3575 8.61743 94.178 8.3544 93.9493 8.13236C93.7206 7.91032 93.4532 7.7361 93.1401 7.60971C92.8305 7.48674 92.4857 7.42183 92.1127 7.42183C91.7398 7.42183 91.3985 7.48332 91.0854 7.60971C90.7757 7.7361 90.5048 7.91032 90.2761 8.13236C90.0474 8.3544 89.868 8.61401 89.7378 8.91804C89.6076 9.21864 89.5443 9.55341 89.5443 9.9155C89.5443 10.2776 89.6076 10.6089 89.7378 10.913C89.868 11.2136 90.0474 11.4766 90.2761 11.6986ZM78.9715 14.0762V5.75142H80.8433V8.92828H84.3512V5.75142H86.2229V14.0762H84.3512V10.5953H80.8433V14.0762H78.9715ZM69.6157 5.75527H71.7197L73.5915 9.16101L75.4633 5.75527H77.5673L74.5274 10.9749V14.0766H72.6556V10.9749L69.6157 5.75527ZM67.3323 13.1543C67.0051 13.4686 66.6181 13.7111 66.1712 13.8887C65.7244 14.0664 65.2353 14.1518 64.7076 14.1552C64.1798 14.1552 63.6908 14.0664 63.2439 13.8887C62.7971 13.7111 62.4101 13.4686 62.0829 13.1543C61.7556 12.8434 61.5023 12.4745 61.3194 12.0509C61.1364 11.6273 61.0449 11.1696 61.0449 10.6743V5.75527H62.9167V10.6743C62.9167 11.2072 63.075 11.6342 63.3987 11.945C63.7189 12.2559 64.1587 12.413 64.7076 12.413C65.2564 12.413 65.6927 12.2593 66.0164 11.945C66.3366 11.6342 66.4984 11.2072 66.4984 10.6743V5.75527H68.3702V10.6743C68.3702 11.1696 68.2787 11.6273 68.0958 12.0509C67.9128 12.4745 67.6595 12.8434 67.3323 13.1543ZM56.2881 7.41886H54.4972V8.93555H56.2881C56.5555 8.93555 56.7806 8.86723 56.9565 8.7306C57.1325 8.59396 57.2204 8.40949 57.2204 8.17721C57.2204 7.94492 57.1325 7.76046 56.9565 7.62382C56.7806 7.48718 56.559 7.41886 56.2881 7.41886ZM57.3014 10.8519C57.0938 10.6811 56.8369 10.5957 56.5238 10.5957V10.5923H54.4972V12.4096H56.5238C56.8334 12.4096 57.0938 12.3242 57.3014 12.1534C57.5089 11.9792 57.6145 11.764 57.6145 11.501C57.6145 11.2413 57.5089 11.0227 57.3014 10.8519ZM58.9761 8.73401C58.8459 8.9663 58.7087 9.15418 58.5645 9.29423C58.378 9.46845 58.1739 9.59825 57.9558 9.69049C58.2372 9.79297 58.4906 9.93302 58.7193 10.1141C58.9057 10.2746 59.0781 10.4864 59.24 10.7494C59.4018 11.0125 59.4828 11.3404 59.4828 11.7332C59.4828 12.0578 59.4194 12.3584 59.2892 12.6419C59.1591 12.9254 58.9691 13.1714 58.7263 13.3832C58.48 13.595 58.1845 13.7623 57.8361 13.8887C57.4878 14.0151 57.1008 14.0766 56.6751 14.0766H52.6219V5.75186H56.5203C56.9249 5.75186 57.2908 5.80993 57.618 5.92607C57.9452 6.04222 58.2232 6.19594 58.4519 6.38723C58.6806 6.57853 58.86 6.80398 58.9831 7.06018C59.1063 7.31638 59.1696 7.58624 59.1696 7.86977C59.1696 8.21478 59.1063 8.50172 58.9761 8.73401ZM43.2981 5.75527H45.4021L47.2739 9.16101L49.1457 5.75527H51.2497L48.2098 10.9749V14.0766H46.338V10.9749L43.2981 5.75527ZM41.0147 13.1543C40.6875 13.4686 40.3005 13.7111 39.8536 13.8887C39.4068 14.0664 38.9177 14.1518 38.3865 14.1552C37.8587 14.1552 37.3696 14.0664 36.9228 13.8887C36.476 13.7111 36.0889 13.4686 35.7617 13.1543C35.4345 12.8434 35.1812 12.4745 34.9982 12.0509C34.8188 11.6273 34.7273 11.1696 34.7273 10.6743V5.75527H36.5991V10.6743C36.5991 11.2072 36.7574 11.6342 37.0811 11.945C37.4013 12.2559 37.8376 12.413 38.39 12.413C38.9388 12.413 39.3751 12.2593 39.6988 11.945C40.019 11.6342 40.1808 11.2072 40.1808 10.6743V5.75527H42.0526V10.6743C42.0526 11.1696 41.9611 11.6273 41.7782 12.0509C41.5952 12.4745 41.3419 12.8434 41.0147 13.1543ZM29.974 7.41886H28.1796V8.93555H29.974C30.2414 8.93555 30.4665 8.86723 30.6425 8.7306C30.8184 8.59396 30.9063 8.40949 30.9063 8.17721C30.9063 7.94492 30.8184 7.76046 30.6425 7.62382C30.4665 7.48718 30.2449 7.41886 29.974 7.41886ZM30.9802 10.8519C30.7726 10.6811 30.5158 10.5957 30.2027 10.5957V10.5923H28.1761V12.4096H30.2027C30.5123 12.4096 30.7726 12.3242 30.9802 12.1534C31.1878 11.9792 31.2934 11.764 31.2934 11.501C31.2934 11.2413 31.1878 11.0227 30.9802 10.8519ZM32.6585 8.73401C32.5283 8.9663 32.3911 9.15418 32.2469 9.29423C32.0604 9.46845 31.8563 9.59825 31.6417 9.69049C31.9232 9.79297 32.1765 9.93302 32.4052 10.1141C32.5917 10.2746 32.7641 10.4864 32.9259 10.7494C33.0877 11.0125 33.1687 11.3404 33.1687 11.7332C33.1687 12.0578 33.1053 12.3584 32.9752 12.6419C32.8415 12.9254 32.655 13.1714 32.4122 13.3832C32.1659 13.595 31.8704 13.7623 31.5221 13.8887C31.1737 14.0151 30.7867 14.0766 30.361 14.0766H26.3078V5.75186H30.2027C30.6073 5.75186 30.9732 5.80993 31.3004 5.92607C31.6276 6.04222 31.9056 6.19594 32.1343 6.38723C32.363 6.57853 32.5424 6.80398 32.6655 7.06018C32.7887 7.31638 32.852 7.58624 32.852 7.86977C32.852 8.21478 32.7887 8.50172 32.6585 8.73401Z" fill="#1B1B1B"/>
<defs>
<linearGradient id="paint0_linear" x1="10.0256" y1="11.1208" x2="16.8206" y2="4.12205" gradientUnits="userSpaceOnUse">
<stop stop-color="#E83C3C"/>
<stop offset="1" stop-color="#9D3C3C"/>
</linearGradient>
<linearGradient id="paint1_linear" x1="13.3484" y1="12.5664" x2="6.72619" y2="19.3872" gradientUnits="userSpaceOnUse">
<stop stop-color="#FFE600"/>
<stop offset="0.839779" stop-color="#FFAA00"/>
<stop offset="1" stop-color="#FFE600"/>
</linearGradient>
</defs>
</svg>
